<svg width="1168" height="1281" viewBox="0 0 1168 1281" fill="none" xmlns="http://www.w3.org/2000/svg">
<path d="M0.286133 1182.27C0.286133 1162.66 4.27613 1145.56 12.2561 1130.97C20.2361 1116.15 31.2941 1104.75 45.4301 1096.77C59.5661 1088.56 75.7541 1084.45 93.9941 1084.45C117.478 1084.45 136.858 1090.38 152.134 1102.24C167.638 1113.87 178.012 1130.28 183.256 1151.49H131.614C128.878 1143.28 124.204 1136.89 117.592 1132.33C111.208 1127.55 103.228 1125.15 93.6521 1125.15C79.9721 1125.15 69.1421 1130.17 61.1621 1140.2C53.1821 1150 49.1921 1164.03 49.1921 1182.27C49.1921 1200.28 53.1821 1214.3 61.1621 1224.33C69.1421 1234.14 79.9721 1239.04 93.6521 1239.04C113.032 1239.04 125.686 1230.37 131.614 1213.05H183.256C178.012 1233.57 167.638 1249.87 152.134 1261.95C136.63 1274.04 117.25 1280.08 93.9941 1280.08C75.7541 1280.08 59.5661 1276.09 45.4301 1268.11C31.2941 1259.9 20.2361 1248.5 12.2561 1233.91C4.27613 1219.09 0.286133 1201.87 0.286133 1182.27Z" fill="#212278"/>
<path d="M195.761 1181.58C195.761 1162.43 199.523 1145.44 207.047 1130.62C214.799 1115.8 225.173 1104.4 238.169 1096.42C251.393 1088.44 266.099 1084.45 282.287 1084.45C296.423 1084.45 308.735 1087.3 319.223 1093C329.939 1098.7 338.489 1105.89 344.873 1114.55V1087.53H393.095V1277H344.873V1249.3C338.717 1258.19 330.167 1265.6 319.223 1271.53C308.507 1277.23 296.081 1280.08 281.945 1280.08C265.985 1280.08 251.393 1275.97 238.169 1267.77C225.173 1259.56 214.799 1248.04 207.047 1233.22C199.523 1218.18 195.761 1200.96 195.761 1181.58ZM344.873 1182.27C344.873 1170.64 342.593 1160.72 338.033 1152.51C333.473 1144.08 327.317 1137.69 319.565 1133.36C311.813 1128.8 303.491 1126.52 294.599 1126.52C285.707 1126.52 277.499 1128.69 269.975 1133.02C262.451 1137.35 256.295 1143.73 251.507 1152.17C246.947 1160.38 244.667 1170.18 244.667 1181.58C244.667 1192.98 246.947 1203.01 251.507 1211.68C256.295 1220.11 262.451 1226.61 269.975 1231.17C277.727 1235.73 285.935 1238.01 294.599 1238.01C303.491 1238.01 311.813 1235.85 319.565 1231.51C327.317 1226.95 333.473 1220.57 338.033 1212.36C342.593 1203.93 344.873 1193.89 344.873 1182.27Z" fill="#212278"/>
<path d="M477.478 1116.94C483.634 1106.91 491.614 1099.05 501.418 1093.35C511.45 1087.65 522.85 1084.8 535.618 1084.8V1135.07H522.964C507.916 1135.07 496.516 1138.6 488.764 1145.67C481.24 1152.74 477.478 1165.05 477.478 1182.61V1277H429.598V1087.53H477.478V1116.94Z" fill="#212278"/>
<path d="M605.487 1115.23C611.643 1106.11 620.079 1098.7 630.795 1093C641.739 1087.3 654.165 1084.45 668.073 1084.45C684.261 1084.45 698.853 1088.44 711.849 1096.42C725.073 1104.4 735.447 1115.8 742.971 1130.62C750.723 1145.22 754.599 1162.2 754.599 1181.58C754.599 1200.96 750.723 1218.18 742.971 1233.22C735.447 1248.04 725.073 1259.56 711.849 1267.77C698.853 1275.97 684.261 1280.08 668.073 1280.08C653.937 1280.08 641.511 1277.34 630.795 1271.87C620.307 1266.17 611.871 1258.87 605.487 1249.98V1277H557.607V1023.92H605.487V1115.23ZM705.693 1181.58C705.693 1170.18 703.299 1160.38 698.511 1152.17C693.951 1143.73 687.795 1137.35 680.043 1133.02C672.519 1128.69 664.311 1126.52 655.419 1126.52C646.755 1126.52 638.547 1128.8 630.795 1133.36C623.271 1137.69 617.115 1144.08 612.327 1152.51C607.767 1160.95 605.487 1170.87 605.487 1182.27C605.487 1193.67 607.767 1203.58 612.327 1212.02C617.115 1220.46 623.271 1226.95 630.795 1231.51C638.547 1235.85 646.755 1238.01 655.419 1238.01C664.311 1238.01 672.519 1235.73 680.043 1231.17C687.795 1226.61 693.951 1220.11 698.511 1211.68C703.299 1203.24 705.693 1193.21 705.693 1181.58Z" fill="#212278"/>
<path d="M863.264 1280.08C845.024 1280.08 828.608 1276.09 814.016 1268.11C799.424 1259.9 787.91 1248.39 779.474 1233.57C771.266 1218.75 767.162 1201.65 767.162 1182.27C767.162 1162.89 771.38 1145.79 779.816 1130.97C788.48 1116.15 800.222 1104.75 815.042 1096.77C829.862 1088.56 846.392 1084.45 864.632 1084.45C882.872 1084.45 899.402 1088.56 914.222 1096.77C929.042 1104.75 940.67 1116.15 949.106 1130.97C957.77 1145.79 962.102 1162.89 962.102 1182.27C962.102 1201.65 957.656 1218.75 948.764 1233.57C940.1 1248.39 928.244 1259.9 913.196 1268.11C898.376 1276.09 881.732 1280.08 863.264 1280.08ZM863.264 1238.35C871.928 1238.35 880.022 1236.3 887.546 1232.2C895.298 1227.87 901.454 1221.48 906.014 1213.05C910.574 1204.61 912.854 1194.35 912.854 1182.27C912.854 1164.25 908.066 1150.46 898.49 1140.88C889.142 1131.08 877.628 1126.18 863.948 1126.18C850.268 1126.18 838.754 1131.08 829.406 1140.88C820.286 1150.46 815.726 1164.25 815.726 1182.27C815.726 1200.28 820.172 1214.19 829.064 1223.99C838.184 1233.57 849.584 1238.35 863.264 1238.35Z" fill="#212278"/>
<path d="M1091.96 1084.8C1114.53 1084.8 1132.77 1091.98 1146.68 1106.34C1160.59 1120.48 1167.54 1140.31 1167.54 1165.85V1277H1119.66V1172.35C1119.66 1157.3 1115.9 1145.79 1108.37 1137.81C1100.85 1129.6 1090.59 1125.49 1077.59 1125.49C1064.37 1125.49 1053.88 1129.6 1046.13 1137.81C1038.61 1145.79 1034.84 1157.3 1034.84 1172.35V1277H986.964V1087.53H1034.84V1111.13C1041.23 1102.92 1049.32 1096.54 1059.13 1091.98C1069.16 1087.19 1080.1 1084.8 1091.96 1084.8Z" fill="#212278"/>
<path d="M592.961 360.709V180.354L748.413 90.5544L747.659 270.909L592.961 360.709Z" fill="#60FFD2"/>
<path d="M592.962 180.354V360.709L436.001 270.909V90.5544L592.962 180.354Z" fill="#36B5B4"/>
<path d="M436.001 90.5544L592.962 180.354L748.414 90.5542L592.962 -0.000488281L436.001 90.5544Z" fill="#5FE4D2"/>
<path d="M747.049 630.714V450.359L902.501 360.559L901.746 540.914L747.049 630.714Z" fill="#71DEFF"/>
<path d="M747.048 450.359V630.714L590.086 540.914V360.559L747.048 450.359Z" fill="#3877C5"/>
<path d="M590.087 360.56L747.048 450.36L902.5 360.56L747.048 270.005L590.087 360.56Z" fill="#4EAADE"/>
<path d="M438.872 630.714V450.359L594.324 360.559L593.57 540.914L438.872 630.714Z" fill="#71DEFF"/>
<path d="M438.873 450.359V630.714L281.912 540.913V360.559L438.873 450.359Z" fill="#3877C5"/>
<path d="M281.912 360.56L438.873 450.36L594.326 360.56L438.873 270.005L281.912 360.56Z" fill="#4EAADE"/>
<path d="M592.961 900.719V720.364L748.414 630.564L747.659 810.919L592.961 900.719Z" fill="#7D7FE5"/>
<path d="M592.962 720.364V900.719L436.001 810.919V630.564L592.962 720.364Z" fill="#2F31AE"/>
<path d="M436.001 630.563L592.962 720.363L748.415 630.563L592.962 540.008L436.001 630.563Z" fill="#6041D0"/>
<path d="M281.961 900.719V720.364L437.413 630.564L436.659 810.919L281.961 900.719Z" fill="#7D7FE5"/>
<path d="M281.962 720.364V900.719L125 810.919V630.564L281.962 720.364Z" fill="#2F31AE"/>
<path d="M125 630.563L281.962 720.363L437.415 630.563L281.962 540.008L125 630.563Z" fill="#6041D0"/>
<path d="M902.546 900.719V720.365L1058 630.565L1057.24 810.919L902.546 900.719Z" fill="#7D7FE5"/>
<path d="M902.547 720.364V900.719L745.586 810.919V630.565L902.547 720.364Z" fill="#2F31AE"/>
<path d="M745.585 630.564L902.547 720.364L1058 630.564L902.547 540.009L745.585 630.564Z" fill="#6041D0"/>
</svg>
