<svg width="1168" height="1438" viewBox="0 0 1168 1438" fill="none" xmlns="http://www.w3.org/2000/svg">
<path d="M75.7 1353.8C82.5 1353.8 87.9667 1355.9 92.1 1360.1C96.3 1364.23 98.4 1370.03 98.4 1377.5V1410H84.4V1379.4C84.4 1375.07 83.3 1371.77 81.1 1369.5C78.9 1367.17 75.9 1366 72.1 1366C68.3 1366 65.2667 1367.17 63 1369.5C60.8 1371.77 59.7 1375.07 59.7 1379.4V1410H45.7V1379.4C45.7 1375.07 44.6 1371.77 42.4 1369.5C40.2 1367.17 37.2 1366 33.4 1366C29.5333 1366 26.4667 1367.17 24.2 1369.5C22 1371.77 20.9 1375.07 20.9 1379.4V1410H6.9V1354.6H20.9V1361.3C22.7 1358.97 25 1357.13 27.8 1355.8C30.6667 1354.47 33.8 1353.8 37.2 1353.8C41.5333 1353.8 45.4 1354.73 48.8 1356.6C52.2 1358.4 54.8333 1361 56.7 1364.4C58.5 1361.2 61.1 1358.63 64.5 1356.7C67.9667 1354.77 71.7 1353.8 75.7 1353.8Z" fill="#212278"/>
<path d="M105.085 1382.1C105.085 1376.5 106.185 1371.53 108.385 1367.2C110.652 1362.87 113.685 1359.53 117.485 1357.2C121.352 1354.87 125.652 1353.7 130.385 1353.7C134.518 1353.7 138.118 1354.53 141.185 1356.2C144.318 1357.87 146.818 1359.97 148.685 1362.5V1354.6H162.785V1410H148.685V1401.9C146.885 1404.5 144.385 1406.67 141.185 1408.4C138.052 1410.07 134.418 1410.9 130.285 1410.9C125.618 1410.9 121.352 1409.7 117.485 1407.3C113.685 1404.9 110.652 1401.53 108.385 1397.2C106.185 1392.8 105.085 1387.77 105.085 1382.1ZM148.685 1382.3C148.685 1378.9 148.018 1376 146.685 1373.6C145.352 1371.13 143.552 1369.27 141.285 1368C139.018 1366.67 136.585 1366 133.985 1366C131.385 1366 128.985 1366.63 126.785 1367.9C124.585 1369.17 122.785 1371.03 121.385 1373.5C120.052 1375.9 119.385 1378.77 119.385 1382.1C119.385 1385.43 120.052 1388.37 121.385 1390.9C122.785 1393.37 124.585 1395.27 126.785 1396.6C129.052 1397.93 131.452 1398.6 133.985 1398.6C136.585 1398.6 139.018 1397.97 141.285 1396.7C143.552 1395.37 145.352 1393.5 146.685 1391.1C148.018 1388.63 148.685 1385.7 148.685 1382.3Z" fill="#212278"/>
<path d="M204.159 1353.8C210.759 1353.8 216.092 1355.9 220.159 1360.1C224.225 1364.23 226.259 1370.03 226.259 1377.5V1410H212.259V1379.4C212.259 1375 211.159 1371.63 208.959 1369.3C206.759 1366.9 203.759 1365.7 199.959 1365.7C196.092 1365.7 193.025 1366.9 190.759 1369.3C188.559 1371.63 187.459 1375 187.459 1379.4V1410H173.459V1354.6H187.459V1361.5C189.325 1359.1 191.692 1357.23 194.559 1355.9C197.492 1354.5 200.692 1353.8 204.159 1353.8Z" fill="#212278"/>
<path d="M288.872 1354.6V1410H274.772V1403C272.972 1405.4 270.605 1407.3 267.672 1408.7C264.805 1410.03 261.672 1410.7 258.272 1410.7C253.939 1410.7 250.105 1409.8 246.772 1408C243.439 1406.13 240.805 1403.43 238.872 1399.9C237.005 1396.3 236.072 1392.03 236.072 1387.1V1354.6H250.072V1385.1C250.072 1389.5 251.172 1392.9 253.372 1395.3C255.572 1397.63 258.572 1398.8 262.372 1398.8C266.239 1398.8 269.272 1397.63 271.472 1395.3C273.672 1392.9 274.772 1389.5 274.772 1385.1V1354.6H288.872Z" fill="#212278"/>
<path d="M325.085 1366.1H315.385V1410H301.185V1366.1H294.885V1354.6H301.185V1351.8C301.185 1345 303.119 1340 306.985 1336.8C310.852 1333.6 316.685 1332.1 324.485 1332.3V1344.1C321.085 1344.03 318.718 1344.6 317.385 1345.8C316.052 1347 315.385 1349.17 315.385 1352.3V1354.6H325.085V1366.1Z" fill="#212278"/>
<path d="M327.558 1382.1C327.558 1376.5 328.658 1371.53 330.858 1367.2C333.124 1362.87 336.158 1359.53 339.958 1357.2C343.824 1354.87 348.124 1353.7 352.858 1353.7C356.991 1353.7 360.591 1354.53 363.658 1356.2C366.791 1357.87 369.291 1359.97 371.158 1362.5V1354.6H385.258V1410H371.158V1401.9C369.358 1404.5 366.858 1406.67 363.658 1408.4C360.524 1410.07 356.891 1410.9 352.758 1410.9C348.091 1410.9 343.824 1409.7 339.958 1407.3C336.158 1404.9 333.124 1401.53 330.858 1397.2C328.658 1392.8 327.558 1387.77 327.558 1382.1ZM371.158 1382.3C371.158 1378.9 370.491 1376 369.158 1373.6C367.824 1371.13 366.024 1369.27 363.758 1368C361.491 1366.67 359.058 1366 356.458 1366C353.858 1366 351.458 1366.63 349.258 1367.9C347.058 1369.17 345.258 1371.03 343.858 1373.5C342.524 1375.9 341.858 1378.77 341.858 1382.1C341.858 1385.43 342.524 1388.37 343.858 1390.9C345.258 1393.37 347.058 1395.27 349.258 1396.6C351.524 1397.93 353.924 1398.6 356.458 1398.6C359.058 1398.6 361.491 1397.97 363.758 1396.7C366.024 1395.37 367.824 1393.5 369.158 1391.1C370.491 1388.63 371.158 1385.7 371.158 1382.3Z" fill="#212278"/>
<path d="M392.331 1382.3C392.331 1376.57 393.498 1371.57 395.831 1367.3C398.165 1362.97 401.398 1359.63 405.531 1357.3C409.665 1354.9 414.398 1353.7 419.731 1353.7C426.598 1353.7 432.265 1355.43 436.731 1358.9C441.265 1362.3 444.298 1367.1 445.831 1373.3H430.731C429.931 1370.9 428.565 1369.03 426.631 1367.7C424.765 1366.3 422.431 1365.6 419.631 1365.6C415.631 1365.6 412.465 1367.07 410.131 1370C407.798 1372.87 406.631 1376.97 406.631 1382.3C406.631 1387.57 407.798 1391.67 410.131 1394.6C412.465 1397.47 415.631 1398.9 419.631 1398.9C425.298 1398.9 428.998 1396.37 430.731 1391.3H445.831C444.298 1397.3 441.265 1402.07 436.731 1405.6C432.198 1409.13 426.531 1410.9 419.731 1410.9C414.398 1410.9 409.665 1409.73 405.531 1407.4C401.398 1405 398.165 1401.67 395.831 1397.4C393.498 1393.07 392.331 1388.03 392.331 1382.3Z" fill="#212278"/>
<path d="M469.388 1366.1V1392.9C469.388 1394.77 469.821 1396.13 470.688 1397C471.621 1397.8 473.154 1398.2 475.288 1398.2H481.788V1410H472.987C461.187 1410 455.288 1404.27 455.288 1392.8V1366.1H448.688V1354.6H455.288V1340.9H469.388V1354.6H481.788V1366.1H469.388Z" fill="#212278"/>
<path d="M541.157 1354.6V1410H527.057V1403C525.257 1405.4 522.89 1407.3 519.957 1408.7C517.09 1410.03 513.957 1410.7 510.557 1410.7C506.224 1410.7 502.39 1409.8 499.057 1408C495.724 1406.13 493.09 1403.43 491.157 1399.9C489.29 1396.3 488.357 1392.03 488.357 1387.1V1354.6H502.357V1385.1C502.357 1389.5 503.457 1392.9 505.657 1395.3C507.857 1397.63 510.857 1398.8 514.657 1398.8C518.524 1398.8 521.557 1397.63 523.757 1395.3C525.957 1392.9 527.057 1389.5 527.057 1385.1V1354.6H541.157Z" fill="#212278"/>
<path d="M565.97 1363.2C567.77 1360.27 570.104 1357.97 572.97 1356.3C575.904 1354.63 579.237 1353.8 582.97 1353.8V1368.5H579.27C574.87 1368.5 571.537 1369.53 569.27 1371.6C567.07 1373.67 565.97 1377.27 565.97 1382.4V1410H551.97V1354.6H565.97V1363.2Z" fill="#212278"/>
<path d="M596.5 1348C594.033 1348 591.967 1347.23 590.3 1345.7C588.7 1344.1 587.9 1342.13 587.9 1339.8C587.9 1337.47 588.7 1335.53 590.3 1334C591.967 1332.4 594.033 1331.6 596.5 1331.6C598.967 1331.6 601 1332.4 602.6 1334C604.267 1335.53 605.1 1337.47 605.1 1339.8C605.1 1342.13 604.267 1344.1 602.6 1345.7C601 1347.23 598.967 1348 596.5 1348ZM603.4 1354.6V1410H589.4V1354.6H603.4Z" fill="#212278"/>
<path d="M644.932 1353.8C651.532 1353.8 656.865 1355.9 660.932 1360.1C664.999 1364.23 667.032 1370.03 667.032 1377.5V1410H653.032V1379.4C653.032 1375 651.932 1371.63 649.732 1369.3C647.532 1366.9 644.532 1365.7 640.732 1365.7C636.865 1365.7 633.799 1366.9 631.532 1369.3C629.332 1371.63 628.232 1375 628.232 1379.4V1410H614.232V1354.6H628.232V1361.5C630.099 1359.1 632.465 1357.23 635.332 1355.9C638.265 1354.5 641.465 1353.8 644.932 1353.8Z" fill="#212278"/>
<path d="M699.045 1353.7C703.179 1353.7 706.812 1354.53 709.945 1356.2C713.079 1357.8 715.545 1359.9 717.345 1362.5V1354.6H731.445V1410.4C731.445 1415.53 730.412 1420.1 728.345 1424.1C726.279 1428.17 723.179 1431.37 719.045 1433.7C714.912 1436.1 709.912 1437.3 704.045 1437.3C696.179 1437.3 689.712 1435.47 684.645 1431.8C679.645 1428.13 676.812 1423.13 676.145 1416.8H690.045C690.779 1419.33 692.345 1421.33 694.745 1422.8C697.212 1424.33 700.179 1425.1 703.645 1425.1C707.712 1425.1 711.012 1423.87 713.545 1421.4C716.079 1419 717.345 1415.33 717.345 1410.4V1401.8C715.545 1404.4 713.045 1406.57 709.845 1408.3C706.712 1410.03 703.112 1410.9 699.045 1410.9C694.379 1410.9 690.112 1409.7 686.245 1407.3C682.379 1404.9 679.312 1401.53 677.045 1397.2C674.845 1392.8 673.745 1387.77 673.745 1382.1C673.745 1376.5 674.845 1371.53 677.045 1367.2C679.312 1362.87 682.345 1359.53 686.145 1357.2C690.012 1354.87 694.312 1353.7 699.045 1353.7ZM717.345 1382.3C717.345 1378.9 716.679 1376 715.345 1373.6C714.012 1371.13 712.212 1369.27 709.945 1368C707.679 1366.67 705.245 1366 702.645 1366C700.045 1366 697.645 1366.63 695.445 1367.9C693.245 1369.17 691.445 1371.03 690.045 1373.5C688.712 1375.9 688.045 1378.77 688.045 1382.1C688.045 1385.43 688.712 1388.37 690.045 1390.9C691.445 1393.37 693.245 1395.27 695.445 1396.6C697.712 1397.93 700.112 1398.6 702.645 1398.6C705.245 1398.6 707.679 1397.97 709.945 1396.7C712.212 1395.37 714.012 1393.5 715.345 1391.1C716.679 1388.63 717.345 1385.7 717.345 1382.3Z" fill="#212278"/>
<path d="M784.147 1410.9C779.614 1410.9 775.547 1410.1 771.947 1408.5C768.347 1406.83 765.48 1404.6 763.347 1401.8C761.28 1399 760.147 1395.9 759.947 1392.5H774.047C774.314 1394.63 775.347 1396.4 777.147 1397.8C779.014 1399.2 781.314 1399.9 784.047 1399.9C786.714 1399.9 788.78 1399.37 790.247 1398.3C791.78 1397.23 792.547 1395.87 792.547 1394.2C792.547 1392.4 791.614 1391.07 789.747 1390.2C787.947 1389.27 785.047 1388.27 781.047 1387.2C776.914 1386.2 773.514 1385.17 770.847 1384.1C768.247 1383.03 765.98 1381.4 764.047 1379.2C762.18 1377 761.247 1374.03 761.247 1370.3C761.247 1367.23 762.114 1364.43 763.847 1361.9C765.647 1359.37 768.18 1357.37 771.447 1355.9C774.78 1354.43 778.68 1353.7 783.147 1353.7C789.747 1353.7 795.014 1355.37 798.947 1358.7C802.88 1361.97 805.047 1366.4 805.447 1372H792.047C791.847 1369.8 790.914 1368.07 789.247 1366.8C787.647 1365.47 785.48 1364.8 782.747 1364.8C780.214 1364.8 778.247 1365.27 776.847 1366.2C775.514 1367.13 774.847 1368.43 774.847 1370.1C774.847 1371.97 775.78 1373.4 777.647 1374.4C779.514 1375.33 782.414 1376.3 786.347 1377.3C790.347 1378.3 793.647 1379.33 796.247 1380.4C798.847 1381.47 801.08 1383.13 802.947 1385.4C804.88 1387.6 805.88 1390.53 805.947 1394.2C805.947 1397.4 805.047 1400.27 803.247 1402.8C801.514 1405.33 798.98 1407.33 795.647 1408.8C792.38 1410.2 788.547 1410.9 784.147 1410.9Z" fill="#212278"/>
<path d="M867.439 1354.6L833.139 1436.2H818.239L830.239 1408.6L808.039 1354.6H823.739L838.039 1393.3L852.539 1354.6H867.439Z" fill="#212278"/>
<path d="M893.186 1410.9C888.653 1410.9 884.586 1410.1 880.986 1408.5C877.386 1406.83 874.519 1404.6 872.386 1401.8C870.319 1399 869.186 1395.9 868.986 1392.5H883.086C883.353 1394.63 884.386 1396.4 886.186 1397.8C888.053 1399.2 890.353 1399.9 893.086 1399.9C895.753 1399.9 897.819 1399.37 899.286 1398.3C900.819 1397.23 901.586 1395.87 901.586 1394.2C901.586 1392.4 900.653 1391.07 898.786 1390.2C896.986 1389.27 894.086 1388.27 890.086 1387.2C885.953 1386.2 882.553 1385.17 879.886 1384.1C877.286 1383.03 875.019 1381.4 873.086 1379.2C871.219 1377 870.286 1374.03 870.286 1370.3C870.286 1367.23 871.153 1364.43 872.886 1361.9C874.686 1359.37 877.219 1357.37 880.486 1355.9C883.819 1354.43 887.719 1353.7 892.186 1353.7C898.786 1353.7 904.053 1355.37 907.986 1358.7C911.919 1361.97 914.086 1366.4 914.486 1372H901.086C900.886 1369.8 899.953 1368.07 898.286 1366.8C896.686 1365.47 894.519 1364.8 891.786 1364.8C889.253 1364.8 887.286 1365.27 885.886 1366.2C884.553 1367.13 883.886 1368.43 883.886 1370.1C883.886 1371.97 884.819 1373.4 886.686 1374.4C888.553 1375.33 891.453 1376.3 895.386 1377.3C899.386 1378.3 902.686 1379.33 905.286 1380.4C907.886 1381.47 910.119 1383.13 911.986 1385.4C913.919 1387.6 914.919 1390.53 914.986 1394.2C914.986 1397.4 914.086 1400.27 912.286 1402.8C910.553 1405.33 908.019 1407.33 904.686 1408.8C901.419 1410.2 897.586 1410.9 893.186 1410.9Z" fill="#212278"/>
<path d="M939.778 1366.1V1392.9C939.778 1394.77 940.211 1396.13 941.078 1397C942.011 1397.8 943.545 1398.2 945.678 1398.2H952.178V1410H943.378C931.578 1410 925.678 1404.27 925.678 1392.8V1366.1H919.078V1354.6H925.678V1340.9H939.778V1354.6H952.178V1366.1H939.778Z" fill="#212278"/>
<path d="M1010.75 1381.1C1010.75 1383.1 1010.61 1384.9 1010.35 1386.5H969.848C970.181 1390.5 971.581 1393.63 974.048 1395.9C976.514 1398.17 979.548 1399.3 983.148 1399.3C988.348 1399.3 992.048 1397.07 994.248 1392.6H1009.35C1007.75 1397.93 1004.68 1402.33 1000.15 1405.8C995.614 1409.2 990.048 1410.9 983.448 1410.9C978.114 1410.9 973.314 1409.73 969.048 1407.4C964.848 1405 961.548 1401.63 959.148 1397.3C956.814 1392.97 955.648 1387.97 955.648 1382.3C955.648 1376.57 956.814 1371.53 959.148 1367.2C961.481 1362.87 964.748 1359.53 968.948 1357.2C973.148 1354.87 977.981 1353.7 983.448 1353.7C988.714 1353.7 993.414 1354.83 997.548 1357.1C1001.75 1359.37 1004.98 1362.6 1007.25 1366.8C1009.58 1370.93 1010.75 1375.7 1010.75 1381.1ZM996.248 1377.1C996.181 1373.5 994.881 1370.63 992.348 1368.5C989.814 1366.3 986.714 1365.2 983.048 1365.2C979.581 1365.2 976.648 1366.27 974.248 1368.4C971.914 1370.47 970.481 1373.37 969.948 1377.1H996.248Z" fill="#212278"/>
<path d="M1086.77 1353.8C1093.57 1353.8 1099.03 1355.9 1103.17 1360.1C1107.37 1364.23 1109.47 1370.03 1109.47 1377.5V1410H1095.47V1379.4C1095.47 1375.07 1094.37 1371.77 1092.17 1369.5C1089.97 1367.17 1086.97 1366 1083.17 1366C1079.37 1366 1076.33 1367.17 1074.07 1369.5C1071.87 1371.77 1070.77 1375.07 1070.77 1379.4V1410H1056.77V1379.4C1056.77 1375.07 1055.67 1371.77 1053.47 1369.5C1051.27 1367.17 1048.27 1366 1044.47 1366C1040.6 1366 1037.53 1367.17 1035.27 1369.5C1033.07 1371.77 1031.97 1375.07 1031.97 1379.4V1410H1017.97V1354.6H1031.97V1361.3C1033.77 1358.97 1036.07 1357.13 1038.87 1355.8C1041.73 1354.47 1044.87 1353.8 1048.27 1353.8C1052.6 1353.8 1056.47 1354.73 1059.87 1356.6C1063.27 1358.4 1065.9 1361 1067.77 1364.4C1069.57 1361.2 1072.17 1358.63 1075.57 1356.7C1079.03 1354.77 1082.77 1353.8 1086.77 1353.8Z" fill="#212278"/>
<path d="M1140.95 1410.9C1136.42 1410.9 1132.35 1410.1 1128.75 1408.5C1125.15 1406.83 1122.28 1404.6 1120.15 1401.8C1118.08 1399 1116.95 1395.9 1116.75 1392.5H1130.85C1131.12 1394.63 1132.15 1396.4 1133.95 1397.8C1135.82 1399.2 1138.12 1399.9 1140.85 1399.9C1143.52 1399.9 1145.58 1399.37 1147.05 1398.3C1148.58 1397.23 1149.35 1395.87 1149.35 1394.2C1149.35 1392.4 1148.42 1391.07 1146.55 1390.2C1144.75 1389.27 1141.85 1388.27 1137.85 1387.2C1133.72 1386.2 1130.32 1385.17 1127.65 1384.1C1125.05 1383.03 1122.78 1381.4 1120.85 1379.2C1118.98 1377 1118.05 1374.03 1118.05 1370.3C1118.05 1367.23 1118.92 1364.43 1120.65 1361.9C1122.45 1359.37 1124.98 1357.37 1128.25 1355.9C1131.58 1354.43 1135.48 1353.7 1139.95 1353.7C1146.55 1353.7 1151.82 1355.37 1155.75 1358.7C1159.68 1361.97 1161.85 1366.4 1162.25 1372H1148.85C1148.65 1369.8 1147.72 1368.07 1146.05 1366.8C1144.45 1365.47 1142.28 1364.8 1139.55 1364.8C1137.02 1364.8 1135.05 1365.27 1133.65 1366.2C1132.32 1367.13 1131.65 1368.43 1131.65 1370.1C1131.65 1371.97 1132.58 1373.4 1134.45 1374.4C1136.32 1375.33 1139.22 1376.3 1143.15 1377.3C1147.15 1378.3 1150.45 1379.33 1153.05 1380.4C1155.65 1381.47 1157.88 1383.13 1159.75 1385.4C1161.68 1387.6 1162.68 1390.53 1162.75 1394.2C1162.75 1397.4 1161.85 1400.27 1160.05 1402.8C1158.32 1405.33 1155.78 1407.33 1152.45 1408.8C1149.18 1410.2 1145.35 1410.9 1140.95 1410.9Z" fill="#212278"/>
<path d="M0.286133 1182.27C0.286133 1162.66 4.27613 1145.56 12.2561 1130.97C20.2361 1116.15 31.2941 1104.75 45.4301 1096.77C59.5661 1088.56 75.7541 1084.45 93.9941 1084.45C117.478 1084.45 136.858 1090.38 152.134 1102.24C167.638 1113.87 178.012 1130.28 183.256 1151.49H131.614C128.878 1143.28 124.204 1136.89 117.592 1132.33C111.208 1127.55 103.228 1125.15 93.6521 1125.15C79.9721 1125.15 69.1421 1130.17 61.1621 1140.2C53.1821 1150 49.1921 1164.03 49.1921 1182.27C49.1921 1200.28 53.1821 1214.3 61.1621 1224.33C69.1421 1234.14 79.9721 1239.04 93.6521 1239.04C113.032 1239.04 125.686 1230.37 131.614 1213.05H183.256C178.012 1233.57 167.638 1249.87 152.134 1261.95C136.63 1274.04 117.25 1280.08 93.9941 1280.08C75.7541 1280.08 59.5661 1276.09 45.4301 1268.11C31.2941 1259.9 20.2361 1248.5 12.2561 1233.91C4.27613 1219.09 0.286133 1201.87 0.286133 1182.27Z" fill="#212278"/>
<path d="M195.761 1181.58C195.761 1162.43 199.523 1145.44 207.047 1130.62C214.799 1115.8 225.173 1104.4 238.169 1096.42C251.393 1088.44 266.099 1084.45 282.287 1084.45C296.423 1084.45 308.735 1087.3 319.223 1093C329.939 1098.7 338.489 1105.89 344.873 1114.55V1087.53H393.095V1277H344.873V1249.3C338.717 1258.19 330.167 1265.6 319.223 1271.53C308.507 1277.23 296.081 1280.08 281.945 1280.08C265.985 1280.08 251.393 1275.97 238.169 1267.77C225.173 1259.56 214.799 1248.04 207.047 1233.22C199.523 1218.18 195.761 1200.96 195.761 1181.58ZM344.873 1182.27C344.873 1170.64 342.593 1160.72 338.033 1152.51C333.473 1144.08 327.317 1137.69 319.565 1133.36C311.813 1128.8 303.491 1126.52 294.599 1126.52C285.707 1126.52 277.499 1128.69 269.975 1133.02C262.451 1137.35 256.295 1143.73 251.507 1152.17C246.947 1160.38 244.667 1170.18 244.667 1181.58C244.667 1192.98 246.947 1203.01 251.507 1211.68C256.295 1220.11 262.451 1226.61 269.975 1231.17C277.727 1235.73 285.935 1238.01 294.599 1238.01C303.491 1238.01 311.813 1235.85 319.565 1231.51C327.317 1226.95 333.473 1220.57 338.033 1212.36C342.593 1203.93 344.873 1193.89 344.873 1182.27Z" fill="#212278"/>
<path d="M477.478 1116.94C483.634 1106.91 491.614 1099.05 501.418 1093.35C511.45 1087.65 522.85 1084.8 535.618 1084.8V1135.07H522.964C507.916 1135.07 496.516 1138.6 488.764 1145.67C481.24 1152.74 477.478 1165.05 477.478 1182.61V1277H429.598V1087.53H477.478V1116.94Z" fill="#212278"/>
<path d="M605.487 1115.23C611.643 1106.11 620.079 1098.7 630.795 1093C641.739 1087.3 654.165 1084.45 668.073 1084.45C684.261 1084.45 698.853 1088.44 711.849 1096.42C725.073 1104.4 735.447 1115.8 742.971 1130.62C750.723 1145.22 754.599 1162.2 754.599 1181.58C754.599 1200.96 750.723 1218.18 742.971 1233.22C735.447 1248.04 725.073 1259.56 711.849 1267.77C698.853 1275.97 684.261 1280.08 668.073 1280.08C653.937 1280.08 641.511 1277.34 630.795 1271.87C620.307 1266.17 611.871 1258.87 605.487 1249.98V1277H557.607V1023.92H605.487V1115.23ZM705.693 1181.58C705.693 1170.18 703.299 1160.38 698.511 1152.17C693.951 1143.73 687.795 1137.35 680.043 1133.02C672.519 1128.69 664.311 1126.52 655.419 1126.52C646.755 1126.52 638.547 1128.8 630.795 1133.36C623.271 1137.69 617.115 1144.08 612.327 1152.51C607.767 1160.95 605.487 1170.87 605.487 1182.27C605.487 1193.67 607.767 1203.58 612.327 1212.02C617.115 1220.46 623.271 1226.95 630.795 1231.51C638.547 1235.85 646.755 1238.01 655.419 1238.01C664.311 1238.01 672.519 1235.73 680.043 1231.17C687.795 1226.61 693.951 1220.11 698.511 1211.68C703.299 1203.24 705.693 1193.21 705.693 1181.58Z" fill="#212278"/>
<path d="M863.264 1280.08C845.024 1280.08 828.608 1276.09 814.016 1268.11C799.424 1259.9 787.91 1248.39 779.474 1233.57C771.266 1218.75 767.162 1201.65 767.162 1182.27C767.162 1162.89 771.38 1145.79 779.816 1130.97C788.48 1116.15 800.222 1104.75 815.042 1096.77C829.862 1088.56 846.392 1084.45 864.632 1084.45C882.872 1084.45 899.402 1088.56 914.222 1096.77C929.042 1104.75 940.67 1116.15 949.106 1130.97C957.77 1145.79 962.102 1162.89 962.102 1182.27C962.102 1201.65 957.656 1218.75 948.764 1233.57C940.1 1248.39 928.244 1259.9 913.196 1268.11C898.376 1276.09 881.732 1280.08 863.264 1280.08ZM863.264 1238.35C871.928 1238.35 880.022 1236.3 887.546 1232.2C895.298 1227.87 901.454 1221.48 906.014 1213.05C910.574 1204.61 912.854 1194.35 912.854 1182.27C912.854 1164.25 908.066 1150.46 898.49 1140.88C889.142 1131.08 877.628 1126.18 863.948 1126.18C850.268 1126.18 838.754 1131.08 829.406 1140.88C820.286 1150.46 815.726 1164.25 815.726 1182.27C815.726 1200.28 820.172 1214.19 829.064 1223.99C838.184 1233.57 849.584 1238.35 863.264 1238.35Z" fill="#212278"/>
<path d="M1091.96 1084.8C1114.53 1084.8 1132.77 1091.98 1146.68 1106.34C1160.59 1120.48 1167.54 1140.31 1167.54 1165.85V1277H1119.66V1172.35C1119.66 1157.3 1115.9 1145.79 1108.37 1137.81C1100.85 1129.6 1090.59 1125.49 1077.59 1125.49C1064.37 1125.49 1053.88 1129.6 1046.13 1137.81C1038.61 1145.79 1034.84 1157.3 1034.84 1172.35V1277H986.964V1087.53H1034.84V1111.13C1041.23 1102.92 1049.32 1096.54 1059.13 1091.98C1069.16 1087.19 1080.1 1084.8 1091.96 1084.8Z" fill="#212278"/>
<path d="M592.961 360.709V180.354L748.413 90.5544L747.659 270.909L592.961 360.709Z" fill="#60FFD2"/>
<path d="M592.962 180.354V360.709L436.001 270.909V90.5544L592.962 180.354Z" fill="#36B5B4"/>
<path d="M436.001 90.5544L592.962 180.354L748.414 90.5542L592.962 -0.000488281L436.001 90.5544Z" fill="#5FE4D2"/>
<path d="M747.049 630.714V450.359L902.501 360.559L901.746 540.914L747.049 630.714Z" fill="#71DEFF"/>
<path d="M747.048 450.359V630.714L590.086 540.914V360.559L747.048 450.359Z" fill="#3877C5"/>
<path d="M590.087 360.56L747.048 450.36L902.5 360.56L747.048 270.005L590.087 360.56Z" fill="#4EAADE"/>
<path d="M438.872 630.714V450.359L594.324 360.559L593.57 540.914L438.872 630.714Z" fill="#71DEFF"/>
<path d="M438.873 450.359V630.714L281.912 540.913V360.559L438.873 450.359Z" fill="#3877C5"/>
<path d="M281.912 360.56L438.873 450.36L594.326 360.56L438.873 270.005L281.912 360.56Z" fill="#4EAADE"/>
<path d="M592.961 900.719V720.364L748.414 630.564L747.659 810.919L592.961 900.719Z" fill="#7D7FE5"/>
<path d="M592.962 720.364V900.719L436.001 810.919V630.564L592.962 720.364Z" fill="#2F31AE"/>
<path d="M436.001 630.563L592.962 720.363L748.415 630.563L592.962 540.008L436.001 630.563Z" fill="#6041D0"/>
<path d="M281.961 900.719V720.364L437.413 630.564L436.659 810.919L281.961 900.719Z" fill="#7D7FE5"/>
<path d="M281.962 720.364V900.719L125 810.919V630.564L281.962 720.364Z" fill="#2F31AE"/>
<path d="M125 630.563L281.962 720.363L437.415 630.563L281.962 540.008L125 630.563Z" fill="#6041D0"/>
<path d="M902.546 900.719V720.365L1058 630.565L1057.24 810.919L902.546 900.719Z" fill="#7D7FE5"/>
<path d="M902.547 720.364V900.719L745.586 810.919V630.565L902.547 720.364Z" fill="#2F31AE"/>
<path d="M745.585 630.564L902.547 720.364L1058 630.564L902.547 540.009L745.585 630.564Z" fill="#6041D0"/>
</svg>
