<svg version="1.1" xmlns="http://www.w3.org/2000/svg" xmlns:xlink="http://www.w3.org/1999/xlink" x="0px" y="0px"
	 width="100%" viewBox="0 0 512 512" xml:space="preserve">

<path fill="#000000" opacity="1.000000" stroke="none" 
	d="
M212.657043,34.753170 
	C224.241882,27.698809 235.271881,20.407036 246.863525,14.156916 
	C256.908112,8.740952 266.112640,12.871619 275.051422,18.436419 
	C292.655396,29.395731 310.506653,39.957596 328.247681,50.697018 
	C337.736023,56.440723 347.233185,62.170448 356.678436,67.984406 
	C363.596588,72.242813 367.019745,78.474747 367.012573,86.649895 
	C366.982666,120.633972 366.739319,154.621216 367.147888,188.600403 
	C367.282501,199.792557 362.841064,207.339249 353.531219,212.882141 
	C325.080048,229.821396 296.733307,246.935989 268.308167,263.919189 
	C259.054016,269.448242 250.495560,266.728271 242.035416,261.589752 
	C220.188339,248.320297 198.224213,235.243713 176.356125,222.008652 
	C169.206604,217.681610 162.190109,213.133102 155.147583,208.631439 
	C149.288361,204.886139 147.143036,198.893723 147.104416,192.541580 
	C146.887756,156.892914 146.986160,121.242233 147.011520,85.592262 
	C147.016678,78.350037 150.253036,72.241722 156.094711,68.610298 
	C174.646973,57.077419 193.567734,46.137302 212.657043,34.753170 
z"/>
<path fill="#000000" opacity="1.000000" stroke="none" 
	d="
M155.031250,485.998230 
	C146.703323,490.917328 139.069626,496.460358 130.712357,500.510284 
	C121.678024,504.888275 113.069458,501.457458 104.970016,496.518555 
	C83.822586,483.623108 62.600582,470.849976 41.402264,458.038055 
	C34.119068,453.636230 26.525877,449.672241 19.627083,444.735687 
	C14.982874,441.412506 11.942176,436.540863 11.957674,430.200928 
	C12.045257,394.372192 12.194795,358.541351 11.867094,322.715393 
	C11.782017,313.414307 15.670609,306.989716 23.080582,302.491272 
	C45.487740,288.888367 68.046539,275.535309 90.540009,262.074463 
	C96.329887,258.609589 102.147331,255.186920 107.862701,251.602310 
	C116.950714,245.902435 125.926880,245.980576 135.065506,251.529678 
	C156.096161,264.299805 177.184479,276.974884 198.246170,289.693909 
	C205.814423,294.264282 213.390579,298.821930 220.931519,303.437073 
	C227.891693,307.696747 231.136963,313.735596 231.086227,322.112671 
	C230.879288,356.273895 230.627502,390.443481 231.208679,424.596069 
	C231.403473,436.043518 226.838852,443.362976 217.530457,448.874176 
	C196.777405,461.161316 176.109467,473.592285 155.031250,485.998230 
z"/>
<path fill="#000000" opacity="1.000000" stroke="none" 
	d="
M283.000000,348.000000 
	C283.000000,340.337646 283.605743,333.112091 282.866791,326.026794 
	C281.555389,313.452393 287.649811,305.921265 297.830505,299.937805 
	C325.123352,283.897095 352.262482,267.591858 379.338837,251.187302 
	C389.302155,245.150909 398.544464,246.718430 407.883850,252.377350 
	C430.840973,266.287445 453.863007,280.090515 476.817047,294.005646 
	C483.001190,297.754608 489.315796,301.381683 495.056000,305.742004 
	C500.239624,309.679504 502.138977,315.368896 502.098389,322.123230 
	C501.887177,357.267548 501.865112,392.414673 502.093018,427.558746 
	C502.151398,436.557404 498.203552,442.595093 490.870911,447.011871 
	C462.783020,463.930389 434.676300,480.817810 406.624603,497.796234 
	C396.902435,503.680664 387.546692,503.449890 377.874084,497.465240 
	C360.241028,486.555267 342.387360,476.002472 324.672516,465.223755 
	C313.273987,458.288208 301.930725,451.260620 290.619049,444.184235 
	C285.232635,440.814575 283.017365,435.633606 283.011322,429.451416 
	C282.984955,402.467621 283.000000,375.483795 283.000000,348.000000 
z"/>
</svg>