<svg version="1.1" id="Layer_1" xmlns="http://www.w3.org/2000/svg" xmlns:xlink="http://www.w3.org/1999/xlink" x="0px" y="0px"
	 width="100%" viewBox="0 0 512 512" xml:space="preserve">

<path fill="#FFFFFF" opacity="1.000000" stroke="none" 
	d="
M300.234375,33.731476 
	C319.207153,45.321487 337.913788,56.643772 356.621674,67.964043 
	C363.811554,72.314682 367.030762,78.757484 367.019318,87.085602 
	C366.972900,120.905479 366.742554,154.728531 367.145752,188.543655 
	C367.278961,199.713531 362.927155,207.298782 353.579956,212.857468 
	C325.118103,229.783478 296.779968,246.917389 268.346893,263.891937 
	C259.124084,269.397949 250.539413,266.758209 242.073364,261.614075 
	C220.225891,248.339096 198.264297,235.252045 176.394577,222.013504 
	C169.245636,217.686005 162.214935,213.161011 155.175201,208.655930 
	C149.331345,204.916183 147.136734,198.952454 147.099701,192.577774 
	C146.892517,156.926437 146.975739,121.273224 147.017059,85.620728 
	C147.027405,76.696907 152.109772,70.690369 159.231995,66.383133 
	C183.304718,51.824890 207.497940,37.465885 231.645477,23.031326 
	C235.642395,20.642103 239.705246,18.356073 243.625565,15.847249 
	C251.440216,10.846216 261.681915,10.049228 270.578003,15.914869 
	C280.094482,22.189547 290.149048,27.648149 300.234375,33.731476 
z"/>
<path fill="#FFFFFF" opacity="1.000000" stroke="none" 
	d="
M92.973518,488.998352 
	C68.545738,474.330658 44.456699,459.756775 20.469217,445.017609 
	C14.898360,441.594543 11.968077,436.425507 11.977282,429.656128 
	C12.025774,393.993927 12.207732,358.329559 11.859309,322.670715 
	C11.768006,313.326538 15.728413,306.959198 23.119339,302.468933 
	C45.521778,288.858551 68.082672,275.509064 90.575172,262.046783 
	C96.364471,258.581726 102.177155,255.152206 107.894211,251.570831 
	C116.800766,245.991455 125.713402,245.885056 134.690674,251.280518 
	C162.805145,268.177765 190.907471,285.095215 219.017151,302.000427 
	C226.810074,306.687073 231.231903,312.886078 231.132980,322.658051 
	C230.788895,356.650391 230.652054,390.653809 231.189377,424.641144 
	C231.376511,436.478027 226.379120,443.478302 216.600250,449.208344 
	C188.574173,465.630554 160.923676,482.692627 133.060440,499.394592 
	C125.747314,503.778259 117.892479,503.228851 110.602859,499.699738 
	C104.549019,496.768921 99.078270,492.633698 92.973518,488.998352 
z"/>
<path fill="#FFFFFF" opacity="1.000000" stroke="none" 
	d="
M487.650757,300.242432 
	C492.134155,304.621948 496.566345,308.572113 500.340790,313.073730 
	C501.705017,314.700775 501.928650,317.648407 501.934753,319.995361 
	C502.028442,355.989075 501.886292,391.983734 502.081177,427.976654 
	C502.128967,436.808685 498.053040,442.696503 490.934296,446.992462 
	C462.849854,463.940491 434.733490,480.835571 406.637970,497.765137 
	C397.014191,503.564178 387.689392,503.610626 377.932648,497.558685 
	C356.886322,484.504028 335.574738,471.877594 314.404602,459.021790 
	C306.295990,454.097748 298.226013,449.105682 290.236542,443.991394 
	C285.393890,440.891418 283.079681,436.044830 283.062012,430.499603 
	C282.942963,393.172882 282.913940,355.845245 283.077240,318.518860 
	C283.107544,311.589203 287.466827,306.460846 292.994202,303.098358 
	C321.699585,285.635925 350.639465,268.559357 379.386078,251.164017 
	C389.353027,245.132736 398.595520,246.745972 407.941925,252.408936 
	C430.906586,266.323151 453.926544,280.146210 476.935638,293.986969 
	C480.372040,296.054108 483.869995,298.018890 487.650757,300.242432 
z"/>
</svg>