<svg width="204" height="205" viewBox="0 0 204 205" fill="none" xmlns="http://www.w3.org/2000/svg">
<path d="M83.555 9.65942C88.3757 6.71351 92.9656 3.66846 97.7893 1.05839C101.969 -1.20332 105.799 0.521652 109.519 2.84552C116.845 7.42215 124.273 11.8328 131.656 16.3176C135.604 18.7162 139.556 21.1089 143.486 23.5368C146.365 25.3152 147.79 27.9176 147.787 31.3316C147.774 45.5234 147.673 59.7165 147.843 73.9063C147.899 78.5802 146.051 81.7317 142.177 84.0464C130.337 91.1202 118.541 98.2673 106.713 105.36C102.862 107.668 99.3006 106.533 95.7801 104.387C86.689 98.8454 77.5491 93.3846 68.4491 87.8576C65.474 86.0506 62.5542 84.1512 59.6236 82.2713C57.1855 80.7072 56.2927 78.2048 56.2767 75.5521C56.1865 60.6652 56.2274 45.7774 56.238 30.8899C56.2401 27.8655 57.5869 25.3147 60.0178 23.7982C67.7379 18.9821 75.6114 14.4135 83.555 9.65942Z" fill="black"/>
<path d="M59.5752 198.1C56.1098 200.154 52.9332 202.469 49.4555 204.16C45.696 205.989 42.1137 204.556 38.7433 202.493C29.9433 197.108 21.1122 191.774 12.291 186.424C9.26025 184.586 6.1005 182.93 3.22972 180.869C1.29713 179.481 0.0318125 177.447 0.0382616 174.799C0.0747074 159.837 0.136934 144.874 0.000568719 129.913C-0.0348342 126.029 1.58332 123.346 4.66682 121.467C13.9911 115.787 23.3784 110.21 32.7386 104.589C35.1479 103.142 37.5687 101.713 39.9471 100.216C43.7288 97.8357 47.4641 97.8684 51.2669 100.186C60.0184 105.518 68.7938 110.812 77.5582 116.123C80.7076 118.032 83.8602 119.935 86.9982 121.862C89.8945 123.641 91.245 126.163 91.2239 129.661C91.1378 143.927 91.033 158.196 91.2748 172.458C91.3559 177.239 89.4564 180.296 85.5829 182.597C76.947 187.728 68.3465 192.919 59.5752 198.1Z" fill="black"/>
<path d="M112.827 140.472C112.827 137.272 113.079 134.255 112.771 131.296C112.226 126.045 114.762 122.9 118.998 120.401C130.355 113.702 141.649 106.893 152.916 100.043C157.062 97.5219 160.908 98.1765 164.794 100.54C174.347 106.349 183.928 112.113 193.479 117.924C196.053 119.489 198.681 121.004 201.069 122.825C203.226 124.469 204.017 126.845 204 129.666C203.912 144.342 203.903 159.019 203.997 173.696C204.022 177.454 202.379 179.975 199.328 181.819C187.639 188.885 175.943 195.937 164.27 203.027C160.225 205.484 156.332 205.388 152.306 202.889C144.969 198.333 137.539 193.926 130.168 189.425C125.425 186.528 120.704 183.594 115.997 180.639C113.756 179.231 112.834 177.068 112.831 174.486C112.82 163.218 112.827 151.949 112.827 140.472Z" fill="black"/>
</svg>
