<svg width="668" height="131" viewBox="0 0 668 131" fill="none" xmlns="http://www.w3.org/2000/svg">
<path d="M206.92 108.76C199.807 108.76 193.537 107.147 188.11 103.92C182.683 100.62 178.43 95.89 175.35 89.73C172.27 83.57 170.73 76.3467 170.73 68.06C170.73 59.8467 172.233 52.66 175.24 46.5C178.247 40.2667 182.463 35.5 187.89 32.2C193.39 28.8267 199.807 27.14 207.14 27.14C216.82 27.14 224.447 29.56 230.02 34.4C235.667 39.24 239.333 46.2067 241.02 55.3L226.06 56.07C225.107 50.8633 223.017 46.83 219.79 43.97C216.637 41.0367 212.42 39.57 207.14 39.57C202.74 39.57 198.89 40.7433 195.59 43.09C192.363 45.3633 189.87 48.6633 188.11 52.99C186.423 57.2433 185.58 62.2667 185.58 68.06C185.58 73.8533 186.46 78.8767 188.22 83.13C189.98 87.3833 192.473 90.6467 195.7 92.92C198.927 95.1933 202.703 96.33 207.03 96.33C212.677 96.33 217.113 94.79 220.34 91.71C223.567 88.5567 225.62 84.12 226.5 78.4L241.46 79.17C239.92 88.5567 236.18 95.8533 230.24 101.06C224.373 106.193 216.6 108.76 206.92 108.76Z" fill="#0A0A0A"/>
<path d="M265.177 108.32C258.944 108.32 253.957 106.927 250.217 104.14C246.55 101.28 244.717 97.32 244.717 92.26C244.717 87.2733 246.257 83.35 249.337 80.49C252.49 77.63 257.33 75.54 263.857 74.22L283.327 70.37C283.327 66.19 282.374 63.0733 280.467 61.02C278.56 58.8933 275.774 57.83 272.107 57.83C268.734 57.83 266.057 58.6 264.077 60.14C262.097 61.68 260.777 63.9533 260.117 66.96L245.707 66.3C246.807 60.0667 249.63 55.3 254.177 52C258.797 48.6267 264.774 46.94 272.107 46.94C280.394 46.94 286.664 49.03 290.917 53.21C295.244 57.39 297.407 63.44 297.407 71.36V92.7C297.407 94.24 297.664 95.3033 298.177 95.89C298.764 96.4767 299.607 96.77 300.707 96.77H302.577V107C302.064 107.147 301.33 107.257 300.377 107.33C299.424 107.403 298.47 107.44 297.517 107.44C293.484 107.44 290.367 106.45 288.167 104.47C286.04 102.49 284.977 99.08 284.977 94.24L286.187 95.12C285.307 99.0067 282.924 102.197 279.037 104.69C275.224 107.11 270.604 108.32 265.177 108.32ZM268.037 98.09C271.19 98.09 273.904 97.4667 276.177 96.22C278.45 94.9733 280.21 93.25 281.457 91.05C282.704 88.7767 283.327 86.1733 283.327 83.24V79.94L268.147 83.02C265.067 83.6067 262.83 84.56 261.437 85.88C260.044 87.2 259.347 88.8867 259.347 90.94C259.347 93.2133 260.08 94.9733 261.547 96.22C263.087 97.4667 265.25 98.09 268.037 98.09Z" fill="#0A0A0A"/>
<path d="M307.72 48.26H320.92L321.47 64.54L320.26 64.32C321.14 58.7467 322.79 54.6767 325.21 52.11C327.63 49.5433 331.003 48.26 335.33 48.26H340.72V60.36H335.22C332.14 60.36 329.61 60.8 327.63 61.68C325.723 62.56 324.256 63.9533 323.23 65.86C322.276 67.7667 321.8 70.1867 321.8 73.12V107H307.72V48.26Z" fill="#0A0A0A"/>
<path d="M377.403 108.32C373.369 108.32 369.813 107.44 366.733 105.68C363.653 103.92 361.269 101.463 359.583 98.31L359.253 107H345.833V28.9H359.913V56.62C361.526 53.76 363.873 51.45 366.953 49.69C370.106 47.8567 373.589 46.94 377.403 46.94C382.389 46.94 386.753 48.2233 390.493 50.79C394.233 53.2833 397.093 56.84 399.073 61.46C401.126 66.08 402.153 71.47 402.153 77.63C402.153 83.79 401.126 89.18 399.073 93.8C397.093 98.42 394.233 102.013 390.493 104.58C386.753 107.073 382.389 108.32 377.403 108.32ZM374.213 96.88C378.246 96.88 381.473 95.1933 383.893 91.82C386.313 88.3733 387.523 83.6433 387.523 77.63C387.523 71.6167 386.313 66.9233 383.893 63.55C381.546 60.1033 378.356 58.38 374.323 58.38C371.316 58.38 368.713 59.15 366.513 60.69C364.386 62.1567 362.736 64.3567 361.563 67.29C360.463 70.15 359.913 73.5967 359.913 77.63C359.913 81.59 360.463 85.0367 361.563 87.97C362.736 90.83 364.386 93.03 366.513 94.57C368.639 96.11 371.206 96.88 374.213 96.88Z" fill="#0A0A0A"/>
<path d="M433.856 108.32C428.063 108.32 423.003 107.073 418.676 104.58C414.349 102.013 410.976 98.42 408.556 93.8C406.136 89.18 404.926 83.79 404.926 77.63C404.926 71.47 406.136 66.08 408.556 61.46C410.976 56.84 414.349 53.2833 418.676 50.79C423.003 48.2233 428.063 46.94 433.856 46.94C439.576 46.94 444.599 48.2233 448.926 50.79C453.326 53.2833 456.699 56.84 459.046 61.46C461.466 66.08 462.676 71.47 462.676 77.63C462.676 83.79 461.466 89.18 459.046 93.8C456.699 98.42 453.326 102.013 448.926 104.58C444.599 107.073 439.576 108.32 433.856 108.32ZM433.856 96.88C438.403 96.88 441.923 95.1933 444.416 91.82C446.909 88.4467 448.156 83.7167 448.156 77.63C448.156 71.6167 446.909 66.9233 444.416 63.55C441.923 60.1033 438.403 58.38 433.856 58.38C429.309 58.38 425.789 60.0667 423.296 63.44C420.803 66.8133 419.556 71.5433 419.556 77.63C419.556 83.7167 420.803 88.4467 423.296 91.82C425.789 95.1933 429.309 96.88 433.856 96.88Z" fill="#0A0A0A"/>
<path d="M468.573 48.26H481.333L481.883 64.76L480.233 64.1C481.113 58.2333 483.24 53.9067 486.613 51.12C489.986 48.3333 494.203 46.94 499.263 46.94C505.57 46.94 510.483 48.9567 514.003 52.99C517.523 57.0233 519.283 62.45 519.283 69.27V107H505.203V73.78C505.203 68.5733 504.396 64.7233 502.783 62.23C501.243 59.6633 498.64 58.38 494.973 58.38C491.16 58.38 488.153 59.7367 485.953 62.45C483.753 65.09 482.653 68.8667 482.653 73.78V107H468.573V48.26Z" fill="#0A0A0A"/>
<path d="M563.458 108.76C555.758 108.76 549.121 107.147 543.547 103.92C537.974 100.62 533.684 95.9267 530.677 89.84C527.671 83.68 526.167 76.42 526.167 68.06C526.167 59.7 527.671 52.44 530.677 46.28C533.684 40.12 537.974 35.39 543.547 32.09C549.121 28.79 555.758 27.14 563.458 27.14C571.158 27.14 577.794 28.79 583.367 32.09C589.014 35.39 593.304 40.12 596.237 46.28C599.244 52.44 600.747 59.7 600.747 68.06C600.747 76.42 599.244 83.68 596.237 89.84C593.304 95.9267 589.014 100.62 583.367 103.92C577.794 107.147 571.158 108.76 563.458 108.76ZM563.458 96.33C568.151 96.33 572.184 95.23 575.557 93.03C578.931 90.7567 581.498 87.4933 583.258 83.24C585.018 78.9867 585.898 73.9267 585.898 68.06C585.898 62.12 585.018 57.0233 583.258 52.77C581.498 48.5167 578.931 45.2533 575.557 42.98C572.184 40.7067 568.151 39.57 563.458 39.57C558.764 39.57 554.731 40.7067 551.357 42.98C548.057 45.2533 545.491 48.5167 543.657 52.77C541.897 57.0233 541.018 62.12 541.018 68.06C541.018 73.9267 541.897 78.9867 543.657 83.24C545.491 87.4933 548.057 90.7567 551.357 93.03C554.731 95.23 558.764 96.33 563.458 96.33Z" fill="#0A0A0A"/>
<path d="M638.439 108.76C631.986 108.76 626.412 107.66 621.719 105.46C617.025 103.187 613.322 99.9967 610.609 95.89C607.895 91.7833 606.319 87.0167 605.879 81.59L620.399 80.71C620.912 84.1567 621.902 87.0533 623.369 89.4C624.836 91.6733 626.816 93.4333 629.309 94.68C631.876 95.8533 634.992 96.44 638.659 96.44C643.279 96.44 646.836 95.5967 649.329 93.91C651.896 92.15 653.179 89.62 653.179 86.32C653.179 84.1933 652.666 82.3967 651.639 80.93C650.612 79.39 648.742 77.9967 646.029 76.75C643.315 75.43 639.355 74.1467 634.149 72.9C627.475 71.36 622.232 69.6733 618.419 67.84C614.605 65.9333 611.819 63.5867 610.059 60.8C608.372 58.0133 607.529 54.4933 607.529 50.24C607.529 45.6933 608.629 41.6967 610.829 38.25C613.102 34.73 616.366 32.0167 620.619 30.11C624.872 28.13 629.896 27.14 635.689 27.14C641.702 27.14 646.909 28.24 651.309 30.44C655.709 32.64 659.155 35.6833 661.649 39.57C664.142 43.4567 665.682 47.9667 666.269 53.1L651.859 53.76C651.565 50.9 650.722 48.4067 649.329 46.28C647.936 44.08 646.065 42.3933 643.719 41.22C641.445 40.0467 638.695 39.46 635.469 39.46C631.362 39.46 628.099 40.4133 625.679 42.32C623.259 44.1533 622.049 46.61 622.049 49.69C622.049 51.8167 622.562 53.5767 623.589 54.97C624.615 56.3633 626.339 57.5733 628.759 58.6C631.252 59.5533 634.882 60.58 639.649 61.68C646.542 63.1467 652.042 65.0167 656.149 67.29C660.255 69.49 663.189 72.0933 664.949 75.1C666.782 78.0333 667.699 81.5167 667.699 85.55C667.699 90.2433 666.489 94.35 664.069 97.87C661.649 101.317 658.202 103.993 653.729 105.9C649.329 107.807 644.232 108.76 638.439 108.76Z" fill="#0A0A0A"/>
<path d="M76.6 5.82516C81.6397 8.90375 86.6086 11.9112 91.5779 14.9182C93.4877 16.0738 94.3428 17.7852 94.3398 19.9973C94.3275 28.9808 94.2663 37.965 94.3734 46.9471C94.4088 49.9141 93.2528 51.929 90.77 53.4055C83.2098 57.9015 75.6825 62.4527 68.1299 66.9615C65.6801 68.4241 63.3998 67.7229 61.151 66.3565C55.3478 62.8303 49.5142 59.3541 43.7051 55.8376C41.8062 54.6881 39.9386 53.4861 38.0687 52.2895C36.5164 51.2961 35.9335 49.712 35.9236 48.0187C35.8686 38.5488 35.8907 29.0784 35.9017 19.6082C35.9044 17.2378 37.2544 15.6424 39.1463 14.4983C45.5406 10.6312 51.9669 6.81711 58.3811 2.98293C59.4428 2.34829 60.522 1.74106 61.5633 1.07466C63.6391 -0.253742 66.3595 -0.465441 68.7226 1.09262C71.2504 2.75933 73.9211 4.20927 76.6 5.82516Z" fill="#0A0A0A"/>
<path d="M21.5464 126.755C15.0577 122.859 8.65909 118.988 2.28742 115.073C0.807658 114.164 0.0293015 112.791 0.0317465 110.993C0.0446272 101.52 0.09296 92.0465 0.000410121 82.5747C-0.0238422 80.0926 1.02814 78.4013 2.99136 77.2086C8.942 73.5933 14.9347 70.0473 20.9093 66.4714C22.4471 65.551 23.9911 64.6401 25.5097 63.6888C27.8755 62.2067 30.2429 62.1785 32.6275 63.6116C40.0954 68.1 47.5601 72.5937 55.0267 77.0841C57.0967 78.329 58.2713 79.9756 58.245 82.5713C58.1536 91.6005 58.1172 100.633 58.26 109.661C58.3097 112.805 56.9822 114.664 54.3847 116.186C46.9403 120.548 39.5956 125.08 32.1945 129.517C30.2519 130.681 28.1655 130.535 26.2292 129.598C24.6211 128.819 23.1679 127.721 21.5464 126.755Z" fill="#0A0A0A"/>
<path d="M126.383 76.6171C127.573 77.7804 128.751 78.8297 129.753 80.0254C130.116 80.4576 130.175 81.2406 130.177 81.864C130.202 91.4248 130.164 100.986 130.216 110.547C130.228 112.893 129.146 114.456 127.255 115.598C119.795 120.099 112.326 124.587 104.863 129.084C102.307 130.624 99.8303 130.637 97.2386 129.029C91.6482 125.562 85.9873 122.208 80.364 118.793C78.2102 117.485 76.0666 116.159 73.9444 114.8C72.658 113.977 72.0433 112.69 72.0386 111.217C72.007 101.302 71.9993 91.3866 72.0427 81.4718C72.0507 79.6311 73.2087 78.2689 74.6769 77.3757C82.3017 72.7373 89.9889 68.2013 97.6247 63.5807C100.272 61.9786 102.727 62.4071 105.21 63.9113C111.31 67.6073 117.425 71.2791 123.536 74.9555C124.449 75.5046 125.378 76.0265 126.383 76.6171Z" fill="#0A0A0A"/>
</svg>
