<svg width="1592" height="357" viewBox="0 0 1592 357" fill="none" xmlns="http://www.w3.org/2000/svg">
<path d="M424.042 176.719C424.042 157.111 428.032 140.011 436.012 125.419C443.992 110.599 455.05 99.199 469.186 91.219C483.322 83.011 499.51 78.907 517.75 78.907C541.234 78.907 560.614 84.835 575.89 96.691C591.394 108.319 601.768 124.735 607.012 145.939H555.37C552.634 137.731 547.96 131.347 541.348 126.787C534.964 121.999 526.984 119.605 517.408 119.605C503.728 119.605 492.898 124.621 484.918 134.653C476.938 144.457 472.948 158.479 472.948 176.719C472.948 194.731 476.938 208.753 484.918 218.785C492.898 228.589 503.728 233.491 517.408 233.491C536.788 233.491 549.442 224.827 555.37 207.499H607.012C601.768 228.019 591.394 244.321 575.89 256.405C560.386 268.489 541.006 274.531 517.75 274.531C499.51 274.531 483.322 270.541 469.186 262.561C455.05 254.353 443.992 242.953 436.012 228.361C428.032 213.541 424.042 196.327 424.042 176.719Z" fill="white"/>
<path d="M619.516 176.035C619.516 156.883 623.278 139.897 630.802 125.077C638.554 110.257 648.928 98.857 661.924 90.877C675.148 82.897 689.854 78.907 706.042 78.907C720.178 78.907 732.49 81.757 742.978 87.457C753.694 93.157 762.244 100.339 768.628 109.003V81.985H816.85V271.453H768.628V243.751C762.472 252.643 753.922 260.053 742.978 265.981C732.262 271.681 719.836 274.531 705.7 274.531C689.74 274.531 675.148 270.427 661.924 262.219C648.928 254.011 638.554 242.497 630.802 227.677C623.278 212.629 619.516 195.415 619.516 176.035ZM768.628 176.719C768.628 165.091 766.348 155.173 761.788 146.965C757.228 138.529 751.072 132.145 743.32 127.813C735.568 123.253 727.246 120.973 718.354 120.973C709.462 120.973 701.254 123.139 693.73 127.471C686.206 131.803 680.05 138.187 675.262 146.623C670.702 154.831 668.422 164.635 668.422 176.035C668.422 187.435 670.702 197.467 675.262 206.131C680.05 214.567 686.206 221.065 693.73 225.625C701.482 230.185 709.69 232.465 718.354 232.465C727.246 232.465 735.568 230.299 743.32 225.967C751.072 221.407 757.228 215.023 761.788 206.815C766.348 198.379 768.628 188.347 768.628 176.719Z" fill="white"/>
<path d="M901.233 111.397C907.389 101.365 915.369 93.499 925.173 87.799C935.205 82.099 946.605 79.249 959.373 79.249V129.523H946.719C931.671 129.523 920.271 133.057 912.519 140.125C904.995 147.193 901.233 159.505 901.233 177.061V271.453H853.353V81.985H901.233V111.397Z" fill="white"/>
<path d="M1029.24 109.687C1035.4 100.567 1043.83 93.157 1054.55 87.457C1065.49 81.757 1077.92 78.907 1091.83 78.907C1108.02 78.907 1122.61 82.897 1135.6 90.877C1148.83 98.857 1159.2 110.257 1166.73 125.077C1174.48 139.669 1178.35 156.655 1178.35 176.035C1178.35 195.415 1174.48 212.629 1166.73 227.677C1159.2 242.497 1148.83 254.011 1135.6 262.219C1122.61 270.427 1108.02 274.531 1091.83 274.531C1077.69 274.531 1065.27 271.795 1054.55 266.323C1044.06 260.623 1035.63 253.327 1029.24 244.435V271.453H981.363V18.373H1029.24V109.687ZM1129.45 176.035C1129.45 164.635 1127.05 154.831 1122.27 146.623C1117.71 138.187 1111.55 131.803 1103.8 127.471C1096.27 123.139 1088.07 120.973 1079.17 120.973C1070.51 120.973 1062.3 123.253 1054.55 127.813C1047.03 132.145 1040.87 138.529 1036.08 146.965C1031.52 155.401 1029.24 165.319 1029.24 176.719C1029.24 188.119 1031.52 198.037 1036.08 206.473C1040.87 214.909 1047.03 221.407 1054.55 225.967C1062.3 230.299 1070.51 232.465 1079.17 232.465C1088.07 232.465 1096.27 230.185 1103.8 225.625C1111.55 221.065 1117.71 214.567 1122.27 206.131C1127.05 197.695 1129.45 187.663 1129.45 176.035Z" fill="white"/>
<path d="M1287.02 274.531C1268.78 274.531 1252.36 270.541 1237.77 262.561C1223.18 254.353 1211.67 242.839 1203.23 228.019C1195.02 213.199 1190.92 196.099 1190.92 176.719C1190.92 157.339 1195.14 140.239 1203.57 125.419C1212.24 110.599 1223.98 99.199 1238.8 91.219C1253.62 83.011 1270.15 78.907 1288.39 78.907C1306.63 78.907 1323.16 83.011 1337.98 91.219C1352.8 99.199 1364.43 110.599 1372.86 125.419C1381.53 140.239 1385.86 157.339 1385.86 176.719C1385.86 196.099 1381.41 213.199 1372.52 228.019C1363.86 242.839 1352 254.353 1336.95 262.561C1322.13 270.541 1305.49 274.531 1287.02 274.531ZM1287.02 232.807C1295.68 232.807 1303.78 230.755 1311.3 226.651C1319.05 222.319 1325.21 215.935 1329.77 207.499C1334.33 199.063 1336.61 188.803 1336.61 176.719C1336.61 158.707 1331.82 144.913 1322.25 135.337C1312.9 125.533 1301.38 120.631 1287.7 120.631C1274.02 120.631 1262.51 125.533 1253.16 135.337C1244.04 144.913 1239.48 158.707 1239.48 176.719C1239.48 194.731 1243.93 208.639 1252.82 218.443C1261.94 228.019 1273.34 232.807 1287.02 232.807Z" fill="white"/>
<path d="M1515.71 79.249C1538.29 79.249 1556.53 86.431 1570.43 100.795C1584.34 114.931 1591.3 134.767 1591.3 160.303V271.453H1543.42V166.801C1543.42 151.753 1539.65 140.239 1532.13 132.259C1524.61 124.051 1514.35 119.947 1501.35 119.947C1488.13 119.947 1477.64 124.051 1469.89 132.259C1462.36 140.239 1458.6 151.753 1458.6 166.801V271.453H1410.72V81.985H1458.6V105.583C1464.98 97.375 1473.08 90.991 1482.88 86.431C1492.91 81.643 1503.86 79.249 1515.71 79.249Z" fill="white"/>
<path d="M184.756 1.33975C187.85 -0.446582 191.662 -0.446582 194.756 1.33975L244.512 30.0662C247.606 31.8526 249.512 35.1538 249.512 38.7265V96.1795C249.512 99.7522 247.606 103.053 244.512 104.84L194.756 133.566C191.662 135.353 187.85 135.353 184.756 133.566L135 104.84C131.906 103.053 130 99.7522 130 96.1795V38.7265C130 35.1538 131.906 31.8526 135 30.0662L184.756 1.33975Z" fill="white"/>
<path d="M121.756 112.34C124.85 110.553 128.662 110.553 131.756 112.34L181.512 141.066C184.606 142.853 186.512 146.154 186.512 149.727V207.179C186.512 210.752 184.606 214.053 181.512 215.84L131.756 244.566C128.662 246.353 124.85 246.353 121.756 244.566L72 215.84C68.906 214.053 67 210.752 67 207.179V149.727C67 146.154 68.906 142.853 72 141.066L121.756 112.34Z" fill="white"/>
<path d="M249.756 112.34C252.85 110.553 256.662 110.553 259.756 112.34L309.512 141.066C312.606 142.853 314.512 146.154 314.512 149.727V207.179C314.512 210.752 312.606 214.053 309.512 215.84L259.756 244.566C256.662 246.353 252.85 246.353 249.756 244.566L200 215.84C196.906 214.053 195 210.752 195 207.179V149.727C195 146.154 196.906 142.853 200 141.066L249.756 112.34Z" fill="white"/>
<path d="M312.756 223.34C315.85 221.553 319.662 221.553 322.756 223.34L372.512 252.066C375.606 253.853 377.512 257.154 377.512 260.727V318.179C377.512 321.752 375.606 325.053 372.512 326.84L322.756 355.566C319.662 357.353 315.85 357.353 312.756 355.566L263 326.84C259.906 325.053 258 321.752 258 318.18V260.727C258 257.154 259.906 253.853 263 252.066L312.756 223.34Z" fill="white"/>
<path d="M54.7558 223.34C57.8498 221.553 61.6617 221.553 64.7558 223.34L114.512 252.066C117.606 253.853 119.512 257.154 119.512 260.727V318.179C119.512 321.752 117.606 325.053 114.512 326.84L64.7558 355.566C61.6617 357.353 57.8498 357.353 54.7558 355.566L5 326.84C1.90599 325.053 0 321.752 0 318.18V260.727C0 257.154 1.90599 253.853 5 252.066L54.7558 223.34Z" fill="white"/>
<path d="M183.756 223.34C186.85 221.553 190.662 221.553 193.756 223.34L243.512 252.066C246.606 253.853 248.512 257.154 248.512 260.727V318.179C248.512 321.752 246.606 325.053 243.512 326.84L193.756 355.566C190.662 357.353 186.85 357.353 183.756 355.566L134 326.84C130.906 325.053 129 321.752 129 318.18V260.727C129 257.154 130.906 253.853 134 252.066L183.756 223.34Z" fill="white"/>
</svg>
