<svg width="1595" height="357" viewBox="0 0 1595 357" fill="none" xmlns="http://www.w3.org/2000/svg">
<path d="M427.042 202.719C427.042 183.111 431.032 166.011 439.012 151.419C446.992 136.599 458.05 125.199 472.186 117.219C486.322 109.011 502.51 104.907 520.75 104.907C544.234 104.907 563.614 110.835 578.89 122.691C594.394 134.319 604.768 150.735 610.012 171.939H558.37C555.634 163.731 550.96 157.347 544.348 152.787C537.964 147.999 529.984 145.605 520.408 145.605C506.728 145.605 495.898 150.621 487.918 160.653C479.938 170.457 475.948 184.479 475.948 202.719C475.948 220.731 479.938 234.753 487.918 244.785C495.898 254.589 506.728 259.491 520.408 259.491C539.788 259.491 552.442 250.827 558.37 233.499H610.012C604.768 254.019 594.394 270.321 578.89 282.405C563.386 294.489 544.006 300.531 520.75 300.531C502.51 300.531 486.322 296.541 472.186 288.561C458.05 280.353 446.992 268.953 439.012 254.361C431.032 239.541 427.042 222.327 427.042 202.719Z" fill="black"/>
<path d="M622.516 202.035C622.516 182.883 626.278 165.897 633.802 151.077C641.554 136.257 651.928 124.857 664.924 116.877C678.148 108.897 692.854 104.907 709.042 104.907C723.178 104.907 735.49 107.757 745.978 113.457C756.694 119.157 765.244 126.339 771.628 135.003V107.985H819.85V297.453H771.628V269.751C765.472 278.643 756.922 286.053 745.978 291.981C735.262 297.681 722.836 300.531 708.7 300.531C692.74 300.531 678.148 296.427 664.924 288.219C651.928 280.011 641.554 268.497 633.802 253.677C626.278 238.629 622.516 221.415 622.516 202.035ZM771.628 202.719C771.628 191.091 769.348 181.173 764.788 172.965C760.228 164.529 754.072 158.145 746.32 153.813C738.568 149.253 730.246 146.973 721.354 146.973C712.462 146.973 704.254 149.139 696.73 153.471C689.206 157.803 683.05 164.187 678.262 172.623C673.702 180.831 671.422 190.635 671.422 202.035C671.422 213.435 673.702 223.467 678.262 232.131C683.05 240.567 689.206 247.065 696.73 251.625C704.482 256.185 712.69 258.465 721.354 258.465C730.246 258.465 738.568 256.299 746.32 251.967C754.072 247.407 760.228 241.023 764.788 232.815C769.348 224.379 771.628 214.347 771.628 202.719Z" fill="black"/>
<path d="M904.233 137.397C910.389 127.365 918.369 119.499 928.173 113.799C938.205 108.099 949.605 105.249 962.373 105.249V155.523H949.719C934.671 155.523 923.271 159.057 915.519 166.125C907.995 173.193 904.233 185.505 904.233 203.061V297.453H856.353V107.985H904.233V137.397Z" fill="black"/>
<path d="M1032.24 135.687C1038.4 126.567 1046.83 119.157 1057.55 113.457C1068.49 107.757 1080.92 104.907 1094.83 104.907C1111.02 104.907 1125.61 108.897 1138.6 116.877C1151.83 124.857 1162.2 136.257 1169.73 151.077C1177.48 165.669 1181.35 182.655 1181.35 202.035C1181.35 221.415 1177.48 238.629 1169.73 253.677C1162.2 268.497 1151.83 280.011 1138.6 288.219C1125.61 296.427 1111.02 300.531 1094.83 300.531C1080.69 300.531 1068.27 297.795 1057.55 292.323C1047.06 286.623 1038.63 279.327 1032.24 270.435V297.453H984.363V44.373H1032.24V135.687ZM1132.45 202.035C1132.45 190.635 1130.05 180.831 1125.27 172.623C1120.71 164.187 1114.55 157.803 1106.8 153.471C1099.27 149.139 1091.07 146.973 1082.17 146.973C1073.51 146.973 1065.3 149.253 1057.55 153.813C1050.03 158.145 1043.87 164.529 1039.08 172.965C1034.52 181.401 1032.24 191.319 1032.24 202.719C1032.24 214.119 1034.52 224.037 1039.08 232.473C1043.87 240.909 1050.03 247.407 1057.55 251.967C1065.3 256.299 1073.51 258.465 1082.17 258.465C1091.07 258.465 1099.27 256.185 1106.8 251.625C1114.55 247.065 1120.71 240.567 1125.27 232.131C1130.05 223.695 1132.45 213.663 1132.45 202.035Z" fill="black"/>
<path d="M1290.02 300.531C1271.78 300.531 1255.36 296.541 1240.77 288.561C1226.18 280.353 1214.67 268.839 1206.23 254.019C1198.02 239.199 1193.92 222.099 1193.92 202.719C1193.92 183.339 1198.14 166.239 1206.57 151.419C1215.24 136.599 1226.98 125.199 1241.8 117.219C1256.62 109.011 1273.15 104.907 1291.39 104.907C1309.63 104.907 1326.16 109.011 1340.98 117.219C1355.8 125.199 1367.43 136.599 1375.86 151.419C1384.53 166.239 1388.86 183.339 1388.86 202.719C1388.86 222.099 1384.41 239.199 1375.52 254.019C1366.86 268.839 1355 280.353 1339.95 288.561C1325.13 296.541 1308.49 300.531 1290.02 300.531ZM1290.02 258.807C1298.68 258.807 1306.78 256.755 1314.3 252.651C1322.05 248.319 1328.21 241.935 1332.77 233.499C1337.33 225.063 1339.61 214.803 1339.61 202.719C1339.61 184.707 1334.82 170.913 1325.25 161.337C1315.9 151.533 1304.38 146.631 1290.7 146.631C1277.02 146.631 1265.51 151.533 1256.16 161.337C1247.04 170.913 1242.48 184.707 1242.48 202.719C1242.48 220.731 1246.93 234.639 1255.82 244.443C1264.94 254.019 1276.34 258.807 1290.02 258.807Z" fill="black"/>
<path d="M1518.71 105.249C1541.29 105.249 1559.53 112.431 1573.43 126.795C1587.34 140.931 1594.3 160.767 1594.3 186.303V297.453H1546.42V192.801C1546.42 177.753 1542.65 166.239 1535.13 158.259C1527.61 150.051 1517.35 145.947 1504.35 145.947C1491.13 145.947 1480.64 150.051 1472.89 158.259C1465.36 166.239 1461.6 177.753 1461.6 192.801V297.453H1413.72V107.985H1461.6V131.583C1467.98 123.375 1476.08 116.991 1485.88 112.431C1495.91 107.643 1506.86 105.249 1518.71 105.249Z" fill="black"/>
<path d="M184.756 1.33975C187.85 -0.446582 191.662 -0.446582 194.756 1.33975L244.512 30.0662C247.606 31.8526 249.512 35.1538 249.512 38.7265V96.1795C249.512 99.7521 247.606 103.053 244.512 104.84L194.756 133.566C191.662 135.353 187.85 135.353 184.756 133.566L135 104.84C131.906 103.053 130 99.7521 130 96.1795V38.7265C130 35.1538 131.906 31.8526 135 30.0662L184.756 1.33975Z" fill="black"/>
<path d="M121.756 112.34C124.85 110.553 128.662 110.553 131.756 112.34L181.512 141.066C184.606 142.853 186.512 146.154 186.512 149.727V207.179C186.512 210.752 184.606 214.053 181.512 215.84L131.756 244.566C128.662 246.353 124.85 246.353 121.756 244.566L72 215.84C68.906 214.053 67 210.752 67 207.179V149.727C67 146.154 68.906 142.853 72 141.066L121.756 112.34Z" fill="black"/>
<path d="M249.756 112.34C252.85 110.553 256.662 110.553 259.756 112.34L309.512 141.066C312.606 142.853 314.512 146.154 314.512 149.727V207.179C314.512 210.752 312.606 214.053 309.512 215.84L259.756 244.566C256.662 246.353 252.85 246.353 249.756 244.566L200 215.84C196.906 214.053 195 210.752 195 207.179V149.727C195 146.154 196.906 142.853 200 141.066L249.756 112.34Z" fill="black"/>
<path d="M312.756 223.34C315.85 221.553 319.662 221.553 322.756 223.34L372.512 252.066C375.606 253.853 377.512 257.154 377.512 260.727V318.18C377.512 321.752 375.606 325.053 372.512 326.84L322.756 355.566C319.662 357.353 315.85 357.353 312.756 355.566L263 326.84C259.906 325.053 258 321.752 258 318.18V260.727C258 257.154 259.906 253.853 263 252.066L312.756 223.34Z" fill="black"/>
<path d="M54.7558 223.34C57.8498 221.553 61.6617 221.553 64.7558 223.34L114.512 252.066C117.606 253.853 119.512 257.154 119.512 260.727V318.18C119.512 321.752 117.606 325.053 114.512 326.84L64.7558 355.566C61.6617 357.353 57.8498 357.353 54.7558 355.566L5 326.84C1.90599 325.053 0 321.752 0 318.18V260.727C0 257.154 1.90599 253.853 5 252.066L54.7558 223.34Z" fill="black"/>
<path d="M183.756 223.34C186.85 221.553 190.662 221.553 193.756 223.34L243.512 252.066C246.606 253.853 248.512 257.154 248.512 260.727V318.18C248.512 321.752 246.606 325.053 243.512 326.84L193.756 355.566C190.662 357.353 186.85 357.353 183.756 355.566L134 326.84C130.906 325.053 129 321.752 129 318.18V260.727C129 257.154 130.906 253.853 134 252.066L183.756 223.34Z" fill="black"/>
</svg>
