<svg width="144" height="21" viewBox="0 0 144 21" fill="none" xmlns="http://www.w3.org/2000/svg">
<path d="M141.306 16.0766V0H143.985V16.0766H141.306Z" fill="black"/>
<path d="M132.9 16.3754C130.613 16.3754 129.135 15.0433 129.135 13.0223C129.135 10.3122 131.491 9.66917 133.455 9.34763L135.696 9.0261C136.55 8.8883 136.758 8.45194 136.758 7.92372C136.758 6.98207 136.111 6.22418 134.679 6.22418C133.293 6.22418 132.392 6.86724 132.23 8.13041H129.551C129.874 5.55815 131.93 4.20312 134.702 4.20312C137.844 4.20312 139.415 5.69595 139.415 8.49787V13.4587C139.415 13.7802 139.646 13.9869 139.969 13.9869H140.593V16.0768H138.884C137.705 16.0768 136.966 15.5026 136.966 14.607V14.3543C135.95 15.8242 134.425 16.3754 132.9 16.3754ZM131.861 12.7467C131.861 13.7802 132.623 14.3543 133.778 14.3543C135.626 14.3543 136.758 12.8386 136.758 10.9323V10.3122C136.412 10.496 136.088 10.5649 135.696 10.6567L133.963 10.9553C132.508 11.2079 131.861 11.7591 131.861 12.7467Z" fill="black"/>
<path d="M126.379 16.0765C124.439 16.0765 123.445 15.2039 123.445 13.2058V6.54546H121.62V4.50144H122.891C123.237 4.50144 123.445 4.29474 123.445 3.92728V0.666016H126.125V4.50142H128.62V6.54545H126.125V12.6316C126.125 13.5962 126.425 13.9866 127.326 13.9866H128.897V16.0765L126.379 16.0765Z" fill="black"/>
<path d="M116.326 16.3754C112.861 16.3754 110.666 13.7802 110.666 10.2893C110.666 6.82132 112.861 4.20312 116.326 4.20312C119.375 4.20312 121.87 5.94858 121.686 10.9553H113.346C113.508 12.8615 114.408 14.2855 116.349 14.2855C117.666 14.2855 118.544 13.6424 118.913 12.4481H121.547C121.177 14.6529 119.375 16.3754 116.326 16.3754ZM113.392 9.1639H119.052C118.913 7.14284 117.943 6.27012 116.326 6.27012C114.547 6.27012 113.646 7.53327 113.392 9.1639Z" fill="black"/>
<path d="M93.0498 16.0766V0H97.0233L101.366 12.7005L105.64 0H109.591V16.0766H106.98V3.58279L102.637 16.0766H100.073L95.6834 3.6517V16.0766H93.0498Z" fill="black"/>
<path d="M85.0449 16.0766V0H87.7246V16.0766H85.0449Z" fill="black"/>
<path d="M76.6396 16.3754C74.3525 16.3754 72.874 15.0433 72.874 13.0223C72.874 10.3122 75.2304 9.66917 77.194 9.34763L79.4348 9.0261C80.2897 8.8883 80.4975 8.45194 80.4975 7.92372C80.4975 6.98207 79.8507 6.22418 78.4184 6.22418C77.0323 6.22418 76.1314 6.86724 75.9697 8.13041H73.2898C73.6133 5.55815 75.6693 4.20312 78.4415 4.20312C81.5832 4.20312 83.1543 5.69595 83.1543 8.49787V13.4587C83.1543 13.7802 83.3853 13.9869 83.7086 13.9869H84.3324V16.0768H82.6229C81.4447 16.0768 80.7055 15.5026 80.7055 14.607V14.3543C79.6889 15.8242 78.1643 16.3754 76.6396 16.3754ZM75.6 12.7467C75.6 13.7802 76.3623 14.3543 77.5175 14.3543C79.3655 14.3543 80.4975 12.8386 80.4975 10.9323V10.3122C80.151 10.496 79.8276 10.5649 79.4348 10.6567L77.7022 10.9553C76.2468 11.2079 75.6 11.7591 75.6 12.7467Z" fill="black"/>
<path d="M70.1183 16.0765C68.1778 16.0765 67.1845 15.2039 67.1845 13.2058V6.54546H65.3594V4.50144H66.63C66.9765 4.50144 67.1845 4.29474 67.1845 3.92728V0.666016H69.8642V4.50142H72.3592V6.54545H69.8642V12.6316C69.8642 13.5962 70.1645 13.9866 71.0655 13.9866H72.6364V16.0765L70.1183 16.0765Z" fill="black"/>
<path d="M62.0689 16.0766V4.50145H64.7718V16.0766H62.0689ZM61.9766 2.77896V0H64.8642V2.77896H61.9766Z" fill="black"/>
<path d="M55.1319 20.2108C52.0363 20.2108 50.1187 18.7869 49.7953 16.4214H52.4983C52.7755 17.5468 53.6302 18.1439 55.178 18.1439C56.6565 18.1439 57.9041 17.3629 57.9041 15.3419V13.6883C57.0725 15.0893 55.7788 15.6865 54.2771 15.6865C51.5972 15.6865 49.3564 13.3209 49.3564 9.89883C49.3564 6.49978 51.5972 4.20312 54.2771 4.20312C55.8018 4.20312 57.1416 4.86915 57.9041 6.15527V4.50169H60.5839V15.296C60.5839 18.8788 58.0426 20.2108 55.1319 20.2108ZM52.0593 9.94477C52.0593 12.0577 53.2376 13.5735 55.0163 13.5735C56.8182 13.5735 58.0195 12.0577 58.0195 9.94477C58.0195 7.80887 56.8182 6.40792 55.0163 6.40792C53.2376 6.40792 52.0593 7.80887 52.0593 9.94477Z" fill="black"/>
<path d="M45.8121 16.0766V4.50145H48.515V16.0766H45.8121ZM45.7197 2.77896V0H48.6074V2.77896H45.7197Z" fill="black"/>
<path d="M31.1357 16.0766V0H37.1422C41.6702 0 44.8351 3.2383 44.8351 8.0383C44.8351 12.8613 41.6702 16.0766 37.1422 16.0766H31.1357ZM33.9312 13.757H36.9343C39.799 13.757 41.9011 11.7589 41.9011 8.0383C41.9011 4.29476 39.799 2.31962 36.9343 2.31962H33.9312V13.757Z" fill="black"/>
<path d="M6.91114 0.0279541V16.0596H0V14.8776C3.13352 14.1627 5.47131 11.3758 5.47132 8.04379C5.47132 4.71165 3.13364 1.92361 0 1.20886V0.0279541H6.91114Z" fill="black"/>
<path d="M14.9736 0.0279541V16.0596H8.0625V14.8776C11.196 14.1627 13.5338 11.3758 13.5338 8.04379C13.5338 4.71174 11.1961 1.92361 8.0625 1.20886V0.0279541H14.9736Z" fill="black"/>
<path d="M23.0371 0.0279541V16.0596H16.126V14.8776C19.2595 14.1627 21.5973 11.3758 21.5973 8.04379C21.5973 4.71174 19.2596 1.92361 16.126 1.20886V0.0279541H23.0371Z" fill="black"/>
</svg>
