<svg width="151" height="143" viewBox="0 0 151 143" fill="none" xmlns="http://www.w3.org/2000/svg">
<g clip-path="url(#clip0_7477_2789)">
<mask id="mask0_7477_2789" style="mask-type:luminance" maskUnits="userSpaceOnUse" x="0" y="0" width="151" height="143">
<path d="M150.025 0H0V142.977H150.025V0Z" fill="white"/>
</mask>
<g mask="url(#mask0_7477_2789)">
<path d="M149.271 56.812C148.059 50.7732 140.185 46.6153 128.158 44.623C137.478 46.6896 143.486 50.3525 144.511 55.4261C145.179 58.7424 143.634 62.3187 140.321 65.9568C140.235 65.8455 140.124 65.7094 139.988 65.5609C138.777 64.2368 132.311 48.6077 127.614 48.6077C126.18 48.6077 121.446 52.815 115.599 58.6435C112.324 52.2705 108.975 46.8999 107.009 46.8999C105.192 46.8999 98.2076 54.102 90.2349 63.0489C88.6898 61.6258 87.3177 60.7595 86.2546 60.7595C84.4253 60.7595 80.4944 64.6328 76.0446 69.8425C74.0668 68.1844 72.2868 67.1201 70.9766 67.1201C65.1669 67.1201 42.0767 92.5376 38.8257 96.1388C34.3511 96.0269 30.1854 95.6929 26.4277 95.1361C12.5093 92.1911 9.59214 85.4593 12.3857 78.2202C12.7442 80.596 13.7949 82.873 15.5995 84.8653C22.0025 91.4858 32.7812 92.3891 41.0383 89.9885C33.7207 90.1988 25.5007 88.0333 20.8406 82.1924C20.717 81.9821 20.3956 81.487 20.2596 81.2891C20.1731 81.1034 19.9259 80.5713 19.827 80.3733C18.5167 76.8713 20.7417 73.7652 24.1039 71.2284C23.9185 71.6244 23.7454 72.0204 23.6218 72.404C23.387 72.9238 23.2633 73.7405 23.1274 74.2974C22.9296 75.671 22.9914 77.0074 23.4117 78.3316C23.6712 79.272 24.2398 80.1754 24.7837 80.9797C29.6416 86.87 39.3697 87.6372 45.9827 84.7787C40.136 85.5954 32.534 84.4322 28.3684 80.0639C28.0841 79.8041 27.8246 79.3339 27.5896 79.0245C27.3301 78.5171 27.0334 77.9231 26.9592 77.3663C26.9345 77.1807 26.9098 76.9827 26.8727 76.8094C26.8727 76.5991 26.8727 76.1536 26.8974 75.9556C27.0087 75.4111 27.0581 75.0522 27.2806 74.5201C29.4314 69.2857 37.0582 65.1154 42.4105 62.4301C42.052 62.0218 41.6935 61.5763 41.335 61.106C39.0235 62.0094 23.7578 68.3947 25.4018 78.5419C24.0173 72.6887 26.4277 67.9368 29.5674 64.4472C20.9271 68.9887 11.9902 76.3763 19.4933 84.7787C13.2633 78.975 14.2275 73.258 17.9234 68.2586C9.44382 74.7428 3.00378 82.9967 9.67867 90.7928C-11.3472 79.6308 28.1583 55.6488 36.5637 51.788C36.3536 50.9093 36.1929 50.2535 36.1929 50.2535C36.1929 50.2535 1.06311 65.7589 1.06311 83.2319C1.06311 83.2814 1.06311 83.3308 1.08783 83.3927C1.03839 84.5189 1.08783 85.5707 1.29797 86.5359C1.94074 89.7286 4.43765 92.3891 8.43023 94.4927C21.1496 101.187 49.0359 102.116 80.136 95.866C84.2769 95.0373 88.3189 94.0967 92.225 93.0944C93.8072 92.7108 95.3647 92.2901 96.897 91.8322C129.122 82.7492 151.582 68.2462 149.283 56.7872L149.271 56.812ZM87.3672 83.6279L87.9728 83.0463L93.8319 77.3787C94.475 76.7599 95.4883 76.7847 96.0941 77.4157C96.4404 77.7747 96.5762 78.2449 96.5262 78.7027C96.4894 79.0616 96.3413 79.4205 96.0573 79.6927L92.4474 83.17L89.9258 85.5954L89.5921 85.9172C89.2831 86.2142 88.8752 86.3627 88.4796 86.3627C88.0841 86.3627 87.6391 86.2017 87.3301 85.8676C86.712 85.2366 86.7367 84.2095 87.3672 83.6032V83.6279ZM132.757 60.6729C133.572 61.5267 133.547 62.8756 132.707 63.6924L125.254 70.9067C124.833 71.3027 124.302 71.5131 123.77 71.5131C123.238 71.5131 122.658 71.2903 122.225 70.8573C121.41 70.0034 121.434 68.6546 122.275 67.8378L129.728 60.6234C130.581 59.8067 131.928 59.8314 132.744 60.6729H132.757ZM112.201 67.2315L117.38 62.2197L125.995 53.904C126.848 53.0873 128.196 53.112 129.011 53.9535C129.827 54.8073 129.802 56.1562 128.962 56.9729L119.321 66.291L115.167 70.3004C114.746 70.6963 114.215 70.9067 113.684 70.9067C113.152 70.9067 112.571 70.684 112.138 70.2508C111.323 69.397 111.348 68.0481 112.188 67.2315H112.201ZM110.865 56.3047C111.483 56.9358 111.459 57.9629 110.829 58.5692L105.711 63.5191C105.401 63.816 104.994 63.9646 104.598 63.9646C104.203 63.9646 103.758 63.8037 103.449 63.4696C102.831 62.8384 102.856 61.8114 103.486 61.205L108.604 56.2551C109.246 55.6365 110.26 55.6612 110.865 56.2923V56.3047ZM96.1186 60.9204L105.587 51.7755C106.23 51.1568 107.243 51.1815 107.849 51.8127C108.455 52.4438 108.442 53.4708 107.812 54.0773L98.3435 63.2221C98.035 63.5191 97.6264 63.6676 97.2311 63.6676C96.8357 63.6676 96.3904 63.5067 96.0818 63.1726C95.4638 62.5415 95.4883 61.5144 96.1186 60.9081V60.9204ZM79.7034 69.5579L84.8208 64.6081C85.4636 63.9893 86.4771 64.014 87.0828 64.6452C87.4784 65.0535 87.602 65.6104 87.4908 66.1301C87.429 66.4147 87.2683 66.687 87.0457 66.9097L85.4759 68.4318L81.9284 71.8596C81.6193 72.1566 81.2114 72.3051 80.8158 72.3051C80.4203 72.3051 79.9753 72.1442 79.6663 71.8101C79.0483 71.179 79.073 70.1519 79.7034 69.5455V69.5579ZM77.5525 83.6774L83.6712 77.7623L91.3474 70.3499C92.2002 69.5331 93.5476 69.5579 94.3636 70.3994C95.1788 71.2532 95.1543 72.602 94.314 73.4188L86.3906 81.0663L80.5068 86.7463C80.0865 87.1423 79.555 87.3526 79.0235 87.3526C78.4919 87.3526 77.911 87.1299 77.4784 86.6968C76.6626 85.8429 76.6873 84.4941 77.5278 83.6774H77.5525ZM74.1039 76.896C74.7219 77.5271 74.6972 78.5543 74.0668 79.1606L66.6131 86.375C66.3041 86.6721 65.8962 86.8205 65.5007 86.8205C65.1051 86.8205 64.6601 86.6596 64.3511 86.3255C64.0667 86.0286 63.9184 85.6449 63.9061 85.2737C63.8937 84.8282 64.0544 84.3951 64.3881 84.061L65.9086 82.5884L71.8418 76.8589C72.4845 76.2402 73.4982 76.265 74.1039 76.896ZM54.6354 84.2095L68.4302 70.8696C69.2831 70.0529 70.6305 70.0777 71.4463 70.9191C72.2621 71.773 72.2373 73.1217 71.3968 73.9385L57.602 87.2784C57.1817 87.6744 56.6502 87.8847 56.1187 87.8847C55.5871 87.8847 55.0062 87.662 54.5736 87.2288C53.7578 86.375 53.7825 85.0262 54.623 84.2095H54.6354Z" fill="#F2F2F2"/>
<path d="M120.94 4.28141C118.356 5.6055 113.041 8.31554 106.304 11.7557C106.515 15.8888 107.96 22.7691 114.462 27.8674C121.112 24.4645 126.342 21.8039 128.937 20.4674C122.991 15.3196 121.311 8.68678 120.927 4.26904L120.94 4.28141ZM116.008 25.5534C115.846 25.7514 115.625 25.8504 115.39 25.8504C115.216 25.8504 115.031 25.7885 114.883 25.6772C112.201 23.4869 111.014 20.4674 110.964 20.3313C110.803 19.9229 111.014 19.4527 111.421 19.2918C111.83 19.131 112.3 19.3413 112.46 19.7497C112.472 19.7992 113.572 22.5216 115.909 24.4273C116.255 24.6995 116.304 25.2069 116.02 25.5534H116.008ZM118.95 24.0685C118.788 24.2665 118.566 24.3654 118.332 24.3654C118.158 24.3654 117.973 24.3035 117.824 24.1922C115.143 22.0019 113.956 18.9825 113.906 18.8464C113.745 18.438 113.956 17.9678 114.363 17.8069C114.772 17.646 115.241 17.8564 115.402 18.2648C115.402 18.2895 116.502 21.0366 118.851 22.9424C119.197 23.2146 119.246 23.7219 118.962 24.0685H118.95ZM124.932 20.9624C124.771 21.1604 124.549 21.2594 124.314 21.2594C124.141 21.2594 123.955 21.1976 123.807 21.0862C121.125 18.8958 119.939 15.8765 119.889 15.7403C119.728 15.332 119.939 14.8617 120.346 14.7009C120.754 14.5399 121.224 14.7504 121.384 15.1587C121.396 15.2083 122.497 17.9306 124.833 19.8364C125.179 20.1086 125.229 20.616 124.944 20.9624H124.932Z" fill="#F2F2F2"/>
<path d="M108.517 24.6747L57.7752 50.4263C57.6639 50.4882 57.5403 50.5129 57.4167 50.5129C57.12 50.5129 56.8481 50.3521 56.6998 50.0674C56.502 49.6715 56.6503 49.1889 57.0459 48.9909L107.639 23.3135C105.402 19.5639 104.562 15.7031 104.29 12.7827C87.0583 21.5935 62.015 34.4011 48.8506 41.17C48.727 42.2714 49.1349 46.2313 50.8778 49.7086C52.6207 53.1858 56.329 57.1457 56.9099 57.3314C71.3846 49.8942 95.6487 37.4701 112.398 28.9192C110.829 27.5828 109.555 26.1349 108.517 24.65V24.6747Z" fill="#F2F2F2"/>
<path d="M148.48 0.358599C147.688 -1.22535 125.797 2.82115 122.966 3.34089C123.165 7.43689 124.561 14.2553 130.952 19.366C132.917 17.4975 149.234 1.85593 148.48 0.358599ZM129.16 9.37971C129.16 9.37971 142.039 3.76162 145.303 2.17767C140.124 7.9195 137.144 10.147 132.868 14.1686C129.902 12.1887 129.172 9.37971 129.172 9.37971H129.16Z" fill="#F2F2F2"/>
<path d="M58.6034 34.1906L48.5416 30.8989L38.2079 36.4552L47.9606 39.7097L58.6034 34.1906Z" fill="#F2F2F2"/>
<path d="M56.0199 68.617L68.0224 62.2936L70.7418 52.3691L58.3067 58.5689L56.0199 68.617Z" fill="#F2F2F2"/>
<path d="M38.5167 42.0615L32.0891 45.514C32.0891 45.514 35.9209 45.316 38.1583 47.5435C38.7516 47.2342 44.7837 44.1158 44.7837 44.1158L38.5043 42.0739L38.5167 42.0615Z" fill="#F2F2F2"/>
<path d="M43.8318 68.828L51.2979 64.8929L52.9912 58.7056C52.9912 58.7056 46.1681 62.022 45.2534 62.5664C46.0444 66.8109 43.8318 68.828 43.8318 68.828Z" fill="#F2F2F2"/>
<path d="M47.1941 44.5483C47.1941 44.5483 41.0136 47.6915 38.801 48.8299C38.7021 49.659 39.8516 56.7621 44.8578 60.9942C47.1817 59.7939 53.1273 56.8611 53.4981 56.6136C47.6391 50.8841 47.1817 44.5607 47.1817 44.5607L47.1941 44.5483ZM40.5191 50.0674C41.2361 49.6962 42.534 49.0403 43.7453 48.4216C43.8196 48.768 43.9061 49.0774 43.9926 49.4115L43.3003 49.758C42.9048 49.956 42.7441 50.4386 42.9542 50.8346C43.0902 51.1068 43.3745 51.2801 43.6711 51.2801C43.7948 51.2801 43.9184 51.2553 44.0297 51.1935L44.4623 50.9707C44.6477 51.5152 44.8331 52.0226 45.0309 52.4928L43.7453 53.1487C43.3498 53.3467 43.1891 53.8293 43.3992 54.2253C43.5352 54.4975 43.8196 54.6708 44.1162 54.6708C44.2398 54.6708 44.3634 54.646 44.4747 54.5842L45.7231 53.953C45.9826 54.4356 46.2299 54.8564 46.4771 55.2276L44.5612 56.1928C44.1657 56.3908 44.005 56.8735 44.2151 57.2694C44.3511 57.5417 44.6353 57.7149 44.932 57.7149C45.0556 57.7149 45.1792 57.6901 45.2905 57.6282L47.4536 56.5269C48.0099 57.1457 48.3807 57.4179 48.3807 57.4179C48.3807 57.4179 45.8096 58.7049 45.0309 59.1132C41.3103 55.9825 40.4573 50.7109 40.5315 50.0922L40.5191 50.0674Z" fill="#F2F2F2"/>
<path d="M37.3055 53.7554C37.3055 53.7554 24.5366 60.9451 21.0755 63.7789C30.8284 59.0889 36.638 58.1484 36.638 58.1484C36.638 58.1484 34.0175 60.512 32.8555 63.4448C34.277 62.0588 40.0743 59.6457 40.4204 59.3735C38.01 57.1213 37.3055 53.7554 37.3055 53.7554Z" fill="#F2F2F2"/>
<path d="M0.506798 134.672L0 137.889H149.456L150.025 134.672H0.506798Z" fill="#F2F2F2"/>
<path d="M3.74546 114.229L3.18922 117.323H0.160789L1.71827 108.562H11.7059L9.29552 111.111H4.28934L4.17809 111.853H10.6429L8.38081 114.217H3.75782L3.74546 114.229Z" fill="#F2F2F2"/>
<path d="M11.1248 117.31L12.6698 108.549H15.6982L14.1532 117.31H11.1248Z" fill="#F2F2F2"/>
<path d="M19.4067 112.496L18.5662 117.311H15.822L17.0704 110.232C17.2929 108.92 18.1705 108.389 19.0606 108.389C19.419 108.389 19.7651 108.462 20.173 108.896L24.3511 113.4L25.1792 108.55H27.9234L26.6996 115.628C26.4647 116.939 25.5871 117.471 24.7095 117.471C24.3264 117.471 23.9925 117.385 23.597 116.951L19.419 112.484L19.4067 112.496Z" fill="#F2F2F2"/>
<path d="M31.4834 117.311L33.7577 114.798H35.7231C36.1434 114.798 36.6378 114.798 36.8974 114.823C36.8109 114.675 36.5636 114.266 36.44 113.994L35.3647 111.853L30.4821 117.311H26.8974L33.869 109.502C34.3882 108.908 35.0804 108.389 36.0198 108.389C36.9592 108.389 37.429 108.871 37.7627 109.502L41.8294 117.311H31.4834Z" fill="#F2F2F2"/>
<path d="M42.7936 117.31L44.3511 108.549H47.3795L46.267 114.798H52.9295L50.5192 117.31H42.806H42.7936Z" fill="#F2F2F2"/>
<path d="M62.0394 114.229L61.4832 117.323H58.4548L60.0123 108.562H69.9999L67.5895 111.111H62.5834L62.4721 111.853H68.9369L66.6748 114.217H62.0518L62.0394 114.229Z" fill="#F2F2F2"/>
<path d="M77.54 117.31L76.2792 115.132H72.3237L71.9281 117.31H68.8997L69.7032 112.731H77.6265C78.4548 112.731 78.8874 112.422 78.8874 111.766C78.8874 111.308 78.5537 111.111 77.8985 111.111H69.9875L72.4227 108.562H77.9726C79.7897 108.562 82.1012 109.081 82.1012 111.259C82.1012 112.793 81.0629 114.155 79.4313 114.538C79.629 114.699 80.1234 115.218 81.0877 116.605L81.5821 117.323H77.5276L77.54 117.31Z" fill="#F2F2F2"/>
<path d="M88.4673 117.459C84.6107 117.459 82.6453 116.283 82.6453 113.722C82.6453 110.12 85.0804 108.401 90.0742 108.401C93.9308 108.401 95.8959 109.564 95.8959 112.1C95.8959 115.714 93.4487 117.446 88.4673 117.446V117.459ZM89.6168 110.962C86.1063 110.962 85.7108 111.346 85.7108 113.413C85.7108 114.712 86.6378 114.897 88.9493 114.897C92.4598 114.897 92.8554 114.501 92.8554 112.434C92.8554 111.148 91.9283 110.95 89.6168 110.95V110.962Z" fill="#F2F2F2"/>
<path d="M99.9627 112.496L99.1219 117.311H96.3781L97.6264 110.232C97.8491 108.92 98.7266 108.389 99.6164 108.389C99.9749 108.389 100.321 108.462 100.729 108.896L104.907 113.4L105.735 108.55H108.479L107.255 115.628C107.021 116.939 106.143 117.471 105.265 117.471C104.882 117.471 104.548 117.385 104.153 116.951L99.9749 112.484L99.9627 112.496Z" fill="#F2F2F2"/>
<path d="M111.706 117.31L112.794 111.098H108.813L111.236 108.549H121.125L118.703 111.098H115.822L114.734 117.31H111.706Z" fill="#F2F2F2"/>
<path d="M120.445 117.31L121.99 108.549H125.019L123.473 117.31H120.445Z" fill="#F2F2F2"/>
<path d="M125.191 117.31L126.749 108.549H137.083L134.66 111.098H129.308L129.197 111.828H135.97L133.906 113.969H128.814L128.665 114.798H136.007L133.61 117.31H125.191Z" fill="#F2F2F2"/>
<path d="M145.08 117.31L143.82 115.132H139.864L139.468 117.31H136.44L137.243 112.731H145.166C145.995 112.731 146.428 112.422 146.428 111.766C146.428 111.308 146.094 111.111 145.439 111.111H137.527L139.963 108.562H145.513C147.33 108.562 149.642 109.081 149.642 111.259C149.642 112.793 148.603 114.155 146.971 114.538C147.169 114.699 147.664 115.218 148.628 116.605L149.123 117.323H145.068L145.08 117.31Z" fill="#F2F2F2"/>
<path d="M21.335 130.142L20.3214 124.104L16.7986 129.771C16.5514 130.179 16.2794 130.241 16.0074 130.241C15.7355 130.241 15.4759 130.179 15.3771 129.771L13.8938 124.104L10.7046 130.142H9.51797L13.2139 123.101C13.4116 122.73 13.696 122.532 14.005 122.532C14.314 122.532 14.5613 122.705 14.6231 122.978L16.1928 128.88L19.9877 122.978C20.1484 122.717 20.3833 122.532 20.7541 122.532C21.0878 122.532 21.3103 122.73 21.3597 123.101L22.5588 130.142H21.3474H21.335Z" fill="#F2F2F2"/>
<path d="M26.4276 130.142L27.3424 129.115H32.5711L30.0247 123.906L24.7343 130.13H23.3003L29.4191 122.978C29.6168 122.742 29.9259 122.52 30.2967 122.52C30.6675 122.52 30.89 122.718 31.0136 122.978L34.5612 130.13H26.4276V130.142Z" fill="#F2F2F2"/>
<path d="M37.9358 124.153L36.885 130.142H35.7849L36.9963 123.299C37.0828 122.755 37.4413 122.532 37.7998 122.532C37.9481 122.532 38.1088 122.582 38.2695 122.767L43.2756 128.608L44.3263 122.594H45.4264L44.2151 129.437C44.1286 129.982 43.7701 130.204 43.4116 130.204C43.2509 130.204 43.0778 130.167 42.9419 129.982L37.9358 124.14V124.153Z" fill="#F2F2F2"/>
<path d="M55.0555 122.632H56.2793L55.5252 126.864C55.1173 129.128 53.4858 130.267 50.5809 130.267C47.6761 130.267 46.304 129.388 46.304 127.618C46.304 127.383 46.304 127.123 46.3658 126.864L47.1198 122.632H48.3312L47.5772 126.864C47.5278 127.061 47.5278 127.272 47.5278 127.445C47.5278 128.707 48.4919 129.252 50.754 129.252C53.3374 129.252 54.0049 128.547 54.3016 126.864L55.0555 122.632Z" fill="#F2F2F2"/>
<path d="M58.4797 126.963L57.911 130.155H56.6997L58.0223 122.644H65.785L64.8085 123.683H59.0606L58.6404 126.01H64.7714L63.8444 126.975H58.4673L58.4797 126.963Z" fill="#F2F2F2"/>
<path d="M66.4523 130.142L67.3671 129.115H72.5958L70.0494 123.906L64.7589 130.13H63.325L69.4437 122.978C69.6414 122.742 69.9505 122.52 70.3214 122.52C70.6922 122.52 70.9147 122.718 71.0383 122.978L74.5858 130.13H66.4523V130.142Z" fill="#F2F2F2"/>
<path d="M78.8379 130.143C76.613 130.143 75.1421 128.744 75.1421 126.852C75.1421 124.377 77.404 122.632 80.1605 122.632H84.8948L83.9183 123.671H79.9751C78.3435 123.671 76.341 124.649 76.341 126.777C76.341 128.361 77.7378 129.128 79.6661 129.128H83.7453L82.7687 130.155H78.8256L78.8379 130.143Z" fill="#F2F2F2"/>
<path d="M88.1458 130.143L89.2953 123.671H85.3151L86.3163 122.632H94.9939L94.0172 123.671H90.5191L89.3695 130.143H88.1458Z" fill="#F2F2F2"/>
<path d="M103.98 122.632H105.204L104.45 126.864C104.042 129.128 102.41 130.267 99.506 130.267C96.6008 130.267 95.2289 129.388 95.2289 127.618C95.2289 127.383 95.2288 127.123 95.2902 126.864L96.0441 122.632H97.2556L96.5017 126.864C96.4526 127.061 96.4526 127.272 96.4526 127.445C96.4526 128.707 97.4169 129.252 99.6786 129.252C102.262 129.252 102.929 128.547 103.226 126.864L103.98 122.632Z" fill="#F2F2F2"/>
<path d="M113.807 130.143L111.57 127.668H107.256L106.823 130.143H105.612L106.217 126.691H111.582C113.103 126.691 114.537 126.233 114.537 124.97C114.537 123.968 113.548 123.671 112.138 123.671H106.736L107.713 122.632H112.756C114.351 122.632 115.822 123.213 115.822 124.76C115.822 126.307 114.61 127.272 112.868 127.433L115.451 130.131H113.795L113.807 130.143Z" fill="#F2F2F2"/>
<path d="M116.762 130.143L118.097 122.632H119.308L117.973 130.143H116.762Z" fill="#F2F2F2"/>
<path d="M121.978 124.153L120.927 130.142H119.827L121.038 123.299C121.125 122.755 121.483 122.532 121.842 122.532C121.99 122.532 122.15 122.582 122.312 122.767L127.317 128.608L128.368 122.594H129.468L128.257 129.437C128.17 129.982 127.812 130.204 127.454 130.204C127.293 130.204 127.132 130.167 126.984 129.982L121.978 124.14V124.153Z" fill="#F2F2F2"/>
<path d="M134.042 130.143C131.817 130.143 130.346 128.744 130.346 126.852C130.346 124.377 132.608 122.632 135.365 122.632H140.185L139.221 123.671H135.191C133.201 123.671 131.557 124.908 131.557 126.789C131.557 128.2 132.621 129.128 134.228 129.128H137.54L137.96 126.765H133.584L134.487 125.849H139.332L138.566 130.155H134.042V130.143Z" fill="#F2F2F2"/>
<path d="M39.1718 104.007H0L0.506798 100.79H16.3412C16.3412 100.79 21.953 102.399 39.1595 104.007H39.1718Z" fill="#F2F2F2"/>
<path d="M149.456 104.007H50.1853C63.016 102.399 73.1891 100.79 73.1891 100.79H150.025L149.456 104.007Z" fill="#F2F2F2"/>
<path d="M14.2892 142.109L14.1162 143.173H133.61L133.807 142.109H14.2892Z" fill="#F2F2F2"/>
</g>
</g>
<defs>
<clipPath id="clip0_7477_2789">
<rect width="150.025" height="142.977" fill="white"/>
</clipPath>
</defs>
</svg>
