<svg width="162" height="30" viewBox="0 0 162 30" fill="none" xmlns="http://www.w3.org/2000/svg">
<path d="M0 29.5694V7.7717H3.73434V11.4217H3.91601C4.53504 10.1504 5.45012 9.14559 6.66126 8.40738C7.8724 7.66917 9.2854 7.30007 10.9002 7.30007C12.5016 7.30007 13.8474 7.68284 14.9374 8.44839C16.0409 9.20027 16.8079 10.2802 17.2385 11.6883H17.3798C18.0527 10.3349 19.0283 9.26863 20.3068 8.48941C21.5986 7.69651 23.0856 7.30007 24.7678 7.30007C26.1808 7.30007 27.3986 7.58715 28.4214 8.16131C29.4576 8.73547 30.2516 9.59672 30.8033 10.745C31.3685 11.8797 31.6511 13.2673 31.6511 14.9077V29.5694H27.9167V15.5434C27.9167 14.0123 27.5399 12.8161 26.7863 11.9549C26.0462 11.08 24.9696 10.6425 23.5566 10.6425C22.3455 10.6425 21.2891 10.9638 20.3875 11.6063C19.4993 12.2351 18.8265 13.0895 18.3689 14.1695C17.9114 15.2495 17.6826 16.4388 17.6826 17.7375V29.5694H13.9281V15.5434C13.9281 14.0123 13.5513 12.8161 12.7977 11.9549C12.0576 11.08 10.9877 10.6425 9.58818 10.6425C8.36359 10.6425 7.3072 10.9638 6.41904 11.6063C5.53087 12.2351 4.85801 13.0895 4.40047 14.1695C3.95639 15.2358 3.73434 16.4252 3.73434 17.7375V29.5694H0Z" fill="#212121"/>
<path d="M40.1758 29.5694V7.7717H43.9101V29.5694H40.1758Z" fill="#212121"/>
<path d="M52.6972 29.5694V7.7717H56.4316V12.201H56.6334C57.2525 10.6699 58.2147 9.47368 59.52 8.61244C60.8388 7.73753 62.3796 7.30007 64.1425 7.30007C65.6497 7.30007 66.9416 7.62133 68.0182 8.26384C69.1082 8.90636 69.9425 9.84279 70.5212 11.0731C71.0998 12.2898 71.3892 13.7457 71.3892 15.4409V29.5694H67.6548V16.2201C67.6548 14.4293 67.2376 13.0554 66.4033 12.0984C65.569 11.1278 64.3847 10.6425 62.8506 10.6425C61.5184 10.6425 60.3678 10.9979 59.3989 11.7088C58.43 12.4197 57.6898 13.3766 57.1785 14.5796C56.6805 15.769 56.4316 17.0882 56.4316 18.5373V29.5694H52.6972Z" fill="#212121"/>
<path d="M79.9138 29.5694V7.7717H83.6482V29.5694H79.9138Z" fill="#212121"/>
<path d="M92.4353 29.5694V7.7717H96.1697V11.4217H96.3513C96.9704 10.1504 97.8854 9.14559 99.0966 8.40738C100.308 7.66917 101.721 7.30007 103.336 7.30007C104.937 7.30007 106.283 7.68284 107.373 8.44839C108.476 9.20027 109.243 10.2802 109.674 11.6883H109.815C110.488 10.3349 111.464 9.26863 112.742 8.48941C114.034 7.69651 115.521 7.30007 117.203 7.30007C118.616 7.30007 119.834 7.58715 120.857 8.16131C121.893 8.73547 122.687 9.59672 123.239 10.745C123.804 11.8797 124.086 13.2673 124.086 14.9077V29.5694H120.352V15.5434C120.352 14.0123 119.975 12.8161 119.222 11.9549C118.482 11.08 117.405 10.6425 115.992 10.6425C114.781 10.6425 113.724 10.9638 112.823 11.6063C111.935 12.2351 111.262 13.0895 110.804 14.1695C110.347 15.2495 110.118 16.4388 110.118 17.7375V29.5694H106.363V15.5434C106.363 14.0123 105.987 12.8161 105.233 11.9549C104.493 11.08 103.423 10.6425 102.023 10.6425C100.799 10.6425 99.7425 10.9638 98.8543 11.6063C97.9662 12.2351 97.2933 13.0895 96.8358 14.1695C96.3917 15.2358 96.1697 16.4252 96.1697 17.7375V29.5694H92.4353Z" fill="#212121"/>
<path d="M138.485 30C137.166 30 135.989 29.7471 134.953 29.2413C133.916 28.7355 133.102 27.9973 132.51 27.0267C131.918 26.056 131.622 24.9009 131.622 23.5612C131.622 22.1805 131.945 21.0253 132.591 20.0957C133.237 19.1661 134.192 18.4347 135.457 17.9016C136.736 17.3684 138.33 17.013 140.241 16.8353L145.893 16.3431V14.6822C145.893 13.8209 145.685 13.0827 145.267 12.4675C144.864 11.8387 144.278 11.3602 143.511 11.0321C142.758 10.6904 141.876 10.5195 140.867 10.5195C139.858 10.5195 138.976 10.6904 138.223 11.0321C137.483 11.3739 136.897 11.8592 136.467 12.488C136.049 13.1032 135.807 13.8346 135.74 14.6822H132.127C132.248 13.1784 132.672 11.8729 133.398 10.7655C134.138 9.64457 135.141 8.79016 136.406 8.20232C137.684 7.60082 139.185 7.30007 140.907 7.30007C142.67 7.30007 144.198 7.60082 145.49 8.20232C146.795 8.80383 147.791 9.65824 148.477 10.7655C149.177 11.8729 149.527 13.1716 149.527 14.6617V24.73C149.527 25.851 149.567 26.7806 149.648 27.5188C149.729 28.2433 149.856 28.879 150.031 29.4258V29.5694H146.458C146.283 29.1456 146.149 28.5988 146.055 27.9289C145.961 27.2591 145.907 26.4593 145.893 25.5297H145.712C145.16 26.8831 144.258 27.9699 143.007 28.7902C141.769 29.5967 140.261 30 138.485 30ZM139.515 26.9446C140.82 26.9446 141.95 26.6439 142.906 26.0424C143.875 25.4409 144.615 24.6275 145.126 23.6022C145.638 22.5769 145.893 21.4354 145.893 20.1777V19.1114L140.403 19.6036C138.707 19.7403 137.415 20.123 136.527 20.7519C135.639 21.3807 135.195 22.2625 135.195 23.3971C135.195 24.1217 135.37 24.7505 135.72 25.2837C136.083 25.8168 136.588 26.2269 137.234 26.514C137.88 26.8011 138.64 26.9446 139.515 26.9446Z" fill="#212121"/>
<path d="M161.786 29.5694H158.051V0H161.786V29.5694Z" fill="#212121"/>
</svg>
