<svg fill="none" xmlns="http://www.w3.org/2000/svg" viewBox="0 0 122.4 24">
    <g clip-path="url(#clip0_2001_275)">
        <path
            d="M63.8467 17.2571H59.4648L65.9734 6.09427C66.2012 5.70577 66.5331 5.38217 66.935 5.15659C67.337 4.93102 67.7945 4.81158 68.2607 4.81055H70.513C70.9877 4.812 71.4533 4.93627 71.8603 5.17013C72.2672 5.40402 72.5999 5.73879 72.8237 6.13892L79.1803 17.271H74.8218L73.5978 15.0133H65.1262L63.8467 17.2571ZM66.5313 12.4264H72.2102L69.3971 7.20497L66.5313 12.4264Z"
            fill="black"></path>
        <path
            d="M95.583 4.82171V7.65427H85.0256V9.78078H94.8819V12.2422H85.0256V14.4412H95.583V17.2571H83.6819C82.9846 17.2571 82.3159 16.9924 81.8228 16.5214C81.3297 16.0504 81.0527 15.4115 81.0527 14.7454V7.32218C81.0527 6.65604 81.3297 6.01722 81.8228 5.54617C82.3159 5.07516 82.9846 4.81055 83.6819 4.81055L95.583 4.82171Z"
            fill="black"></path>
        <path
            d="M104.501 9.50226L109.873 4.82227H115.339L107.869 10.9618L116.154 17.2465H110.338L104.495 12.5023H102.451V17.2465H98.5098V4.82227H102.471V9.50226H104.501Z"
            fill="black"></path>
        <path d="M118.357 17.2576V4.82227H122.322V17.2576H118.357Z" fill="black"></path>
        <path
            d="M57.1664 10.367C56.4069 9.86466 55.1879 9.6135 53.509 9.6135L50.8945 9.59396L48.2391 9.55768H47.8301C47.3668 9.57568 46.9044 9.50257 46.4717 9.3428C46.1416 9.20047 45.9751 8.89908 45.9751 8.43861C45.9643 8.29288 45.9982 8.14729 46.073 8.01984C46.1478 7.89239 46.26 7.78863 46.3958 7.7214C46.7122 7.56884 47.0639 7.49491 47.4182 7.50652L50.4446 7.41164H58.0136V4.69629H50.2285C49.7611 4.69629 48.8476 4.7149 47.4883 4.7521C46.3786 4.76025 45.2729 4.88187 44.1903 5.11489C43.3489 5.32141 42.7647 5.71023 42.4375 6.28141C42.1103 6.85258 41.9517 7.65443 41.9614 8.68699C41.9614 9.90373 42.2117 10.8079 42.7121 11.3995C43.2125 11.9912 44.0793 12.2842 45.312 12.2786L51.8293 12.4098H52.4749C53.1906 12.4098 53.6755 12.5075 53.9355 12.7084C54.0603 12.8042 54.1596 12.9266 54.2262 13.0656C54.2925 13.2046 54.324 13.3566 54.3182 13.5093C54.3319 13.6613 54.3091 13.8142 54.2513 13.9565C54.1938 14.0987 54.1026 14.2264 53.9852 14.3298C53.7632 14.5028 53.2899 14.5893 52.5596 14.5893L49.9071 14.6647H42.0198V17.3744H48.8263L53.9005 17.2433C55.4741 17.2433 56.6026 16.9698 57.2862 16.4228C57.9698 15.8758 58.3107 14.8665 58.3086 13.3949C58.3086 11.8795 57.9289 10.8833 57.1664 10.367Z"
            fill="black"></path>
        <path
            d="M22.9282 2.18296e-06C22.9733 -0.000180415 23.0176 0.0110954 23.0567 0.0326734C23.0957 0.0542511 23.128 0.0853542 23.1503 0.122793C23.1731 0.160032 23.1852 0.202417 23.1852 0.245584C23.1852 0.28875 23.1731 0.331135 23.1503 0.368374L21.3508 3.34884C21.2965 3.43474 21.2197 3.50565 21.128 3.55457C21.0363 3.60349 20.9329 3.62877 20.8279 3.62791H12.9084C11.7903 3.62866 10.6923 3.91069 9.72456 4.44567C8.75687 4.98064 7.95373 5.74965 7.39601 6.67535L3.42897 13.2391C3.40633 13.2761 3.3739 13.3069 3.33496 13.3282C3.29599 13.3496 3.25188 13.3609 3.20695 13.3609C3.16202 13.3609 3.11791 13.3496 3.07894 13.3282C3.04 13.3069 3.00758 13.2761 2.98494 13.2391L1.81644 11.3023C1.76822 11.2217 1.74093 11.1313 1.73686 11.0385C1.73279 10.9458 1.75207 10.8535 1.79307 10.7693L5.3453 3.51349C5.86169 2.46317 6.6804 1.57499 7.70569 0.952808C8.73099 0.330619 9.92052 0.000137851 11.1352 2.18296e-06H22.9282Z"
            fill="black"></path>
        <path
            d="M30.1951 3.76308e-05C30.24 0.000417681 30.2842 0.0119307 30.323 0.0334522C30.3619 0.0549738 30.3943 0.0857683 30.4171 0.122828C30.4399 0.160067 30.4518 0.202453 30.4518 0.245619C30.4518 0.288786 30.4399 0.331171 30.4171 0.36841L25.2523 8.93027C24.8263 9.63355 24.2142 10.2175 23.4774 10.6235C22.7406 11.0296 21.9051 11.2435 21.0545 11.2438H12.9948C11.8786 11.2498 10.7832 11.5335 9.81666 12.0668C8.85008 12.6002 8.0456 13.3649 7.48241 14.2856L1.59611 23.7963C1.57347 23.8334 1.54106 23.8641 1.5021 23.8855C1.46315 23.9069 1.41902 23.9181 1.3741 23.9181C1.32918 23.9181 1.28505 23.9069 1.24609 23.8855C1.20714 23.8641 1.17473 23.8334 1.15208 23.7963L0.0829093 22.027C0.029864 21.9387 0.00195312 21.8386 0.00195312 21.7368C0.00195312 21.6349 0.029864 21.5349 0.0829093 21.4465L8.71226 7.40097C9.1399 6.69902 9.75233 6.11616 10.4887 5.71031C11.2252 5.30446 12.0599 5.08974 12.9101 5.08748H20.8296C21.202 5.08762 21.5678 4.99405 21.8904 4.81622C22.213 4.6384 22.4808 4.38255 22.667 4.07446L24.9573 0.279107C25.0113 0.193025 25.0881 0.121968 25.1798 0.0730075C25.2715 0.0240469 25.3751 -0.00111084 25.4802 3.76308e-05H30.1951Z"
            fill="black"></path>
        <path
            d="M11.1161 23.9195C11.0711 23.9191 11.027 23.9076 10.9881 23.8861C10.9492 23.8645 10.9168 23.8337 10.894 23.7967C10.8726 23.759 10.8613 23.7168 10.8613 23.6739C10.8613 23.631 10.8726 23.5888 10.894 23.5511L12.6965 20.5734C12.7507 20.4875 12.8275 20.4166 12.9192 20.3677C13.0109 20.3188 13.1143 20.2935 13.2194 20.2944H21.1359C22.2543 20.2936 23.3527 20.0113 24.3205 19.4758C25.2883 18.9403 26.0912 18.1705 26.6483 17.2441L30.6183 10.6804C30.6405 10.643 30.6729 10.6119 30.7117 10.5903C30.7509 10.5687 30.7953 10.5574 30.8403 10.5576C30.8853 10.558 30.9294 10.5695 30.9682 10.591C31.0071 10.6126 31.0395 10.6433 31.0623 10.6804L32.2308 12.6172C32.2796 12.6975 32.3073 12.7879 32.3117 12.8806C32.3164 12.9734 32.2977 13.0658 32.2571 13.1502L28.7049 20.406C28.1883 21.4567 27.3691 22.3452 26.3432 22.9674C25.3174 23.5896 24.1272 23.9199 22.912 23.9195H11.1161Z"
            fill="black"></path>
        <path
            d="M3.85216 23.9191C3.80708 23.919 3.76283 23.9075 3.72383 23.8859C3.68486 23.8643 3.65249 23.8333 3.63 23.796C3.6075 23.7587 3.59567 23.7164 3.5957 23.6733C3.59573 23.6303 3.60762 23.588 3.63014 23.5507L8.7949 15C9.22049 14.2963 9.83249 13.7121 10.5694 13.306C11.3062 12.8999 12.142 12.6862 12.9927 12.6865H21.0495C22.1657 12.6805 23.2611 12.3968 24.2276 11.8634C25.1942 11.33 25.9987 10.5653 26.5619 9.64465L32.4686 0.122793C32.4914 0.0857329 32.5238 0.0549384 32.5627 0.0334168C32.6016 0.0118952 32.6457 0.000382233 32.6906 2.18296e-06C32.7356 -0.000180415 32.78 0.0110954 32.8192 0.0326734C32.858 0.0542511 32.8905 0.0853542 32.9127 0.122793L33.9848 1.8921C34.0388 1.98015 34.0671 2.08032 34.0671 2.18233C34.0671 2.28434 34.0388 2.38451 33.9848 2.47256L25.335 16.5181C24.9071 17.2199 24.2946 17.8026 23.5583 18.2084C22.8219 18.6143 21.9873 18.8291 21.1371 18.8316H13.2147C12.845 18.8348 12.4825 18.9298 12.1628 19.1075C11.8432 19.2851 11.5775 19.5392 11.3919 19.8447L9.08994 23.6316C9.03587 23.7177 8.95916 23.7888 8.86743 23.8377C8.77568 23.8867 8.67212 23.9118 8.56704 23.9107L3.85216 23.9191Z"
            fill="black"></path>
    </g>
    <defs>
        <clipPath id="clip0_2001_275">
            <rect width="122.4" height="24" fill="black"></rect>
        </clipPath>
    </defs>
</svg>
