<svg width="195" height="27" viewBox="0 0 195 27" fill="none" xmlns="http://www.w3.org/2000/svg">
<path d="M0.388602 26.3661V20.7843H20.0307C22.0326 20.7843 23.1748 19.7481 23.1748 18.0994C23.1748 16.3448 22.0326 15.3439 20.0307 15.3439H8.26663C3.14415 15.3439 0 12.2704 0 7.86625C0 3.46209 2.93218 0.353273 8.33728 0.353273H27.1551V5.93501H8.33728C6.75932 5.93501 5.79371 6.82998 5.79371 8.44326C5.79371 10.0566 6.79465 10.9515 8.33728 10.9515H20.0425C25.5182 10.9515 28.4504 13.3891 28.4504 18.5705C28.4504 23.0453 25.6949 26.3661 20.0425 26.3661H0.388602Z" fill="white"/>
<path d="M73.281 26.3661C65.874 26.3661 60.4336 20.643 60.4336 13.0947C60.4336 5.54641 65.874 0.353273 73.281 0.353273H87.624V5.93501H73.281C69.0888 5.93501 66.0153 9.04383 66.0153 13.3773C66.0153 17.7108 69.0535 20.7843 73.281 20.7843H83.6555V15.3439H72.6687V10.9397H89.2373V26.3661H73.281Z" fill="white"/>
<path d="M98.2459 9.05562V26.3779H92.9468V3.33256C92.9468 1.29535 94.0184 0.0353336 95.7377 0.0353336C96.562 0.0353336 97.2096 0.317954 97.9868 1.07161L115.015 17.4282V0.105989H120.349V23.3986C120.349 25.4711 119.207 26.7311 117.558 26.7311C116.699 26.7311 116.016 26.4132 115.274 25.6595L98.2459 9.05562Z" fill="white"/>
<path d="M150.883 26.3661L147.233 20.2073H136.246L138.79 15.8738H144.654L139.897 7.85448L128.98 26.3543H122.645L137.424 1.78993C138.071 0.718325 138.896 0 140.109 0C141.321 0 142.146 0.718325 142.793 1.78993L157.572 26.3661H150.883Z" fill="white"/>
<path d="M160.01 26.3661V0.353273H165.591V20.7843H182.407V26.3661H160.01Z" fill="white"/>
<path d="M51.8256 13.8955L62.942 0.353273H55.8529L48.5166 9.63262L51.8256 13.8955Z" fill="#C3DB70"/>
<path d="M40.8853 4.41593L37.6705 0.353273H30.1929L43.7586 16.9219V26.3661H49.3404V16.9219L49.9763 16.1447L40.8853 4.41593Z" fill="#C3DB70"/>
<path d="M191.749 26.5893C190.198 26.5893 188.955 25.3455 188.955 23.7978C188.955 22.2502 190.198 20.9906 191.749 20.9906C193.3 20.9906 194.556 22.2344 194.556 23.7978C194.556 25.3613 193.3 26.5925 191.749 26.5925V26.5893ZM191.749 21.5033C190.493 21.5033 189.455 22.5287 189.455 23.7978C189.455 25.067 190.493 26.0671 191.749 26.0671C193.006 26.0671 194.031 25.0416 194.031 23.7978C194.031 22.554 193.006 21.5033 191.749 21.5033ZM192.566 24.798L191.993 24.2124H191.468V23.7504H192.199C192.442 23.7504 192.575 23.6174 192.575 23.3832C192.575 23.1649 192.442 23.0161 192.199 23.0161H190.98V24.798H190.48V22.5287H192.199C192.746 22.5287 193.075 22.8579 193.075 23.3706C193.075 23.7504 192.892 24.0036 192.601 24.1396L193.297 24.798H192.566Z" fill="white"/>
</svg>
