<svg width="133" height="133" viewBox="0 0 133 133" fill="none" xmlns="http://www.w3.org/2000/svg">
<rect x="1.11662" y="1.11662" width="130.673" height="130.673" stroke="black" stroke-width="2.23324"/>
<path fill-rule="evenodd" clip-rule="evenodd" d="M101.401 86.2574H115.95L104.996 44.7987L91.2323 44.7987L87.8582 62.0383H87.2735L83.8995 44.7987L70.1359 44.7987L70.1333 44.8088H60.1747L56.2348 62.9463H53.6203L49.62 44.8088H38.9806L34.9803 62.9463H32.3658L28.4259 44.8088H15.8113L26.768 86.2474H39.2511L42.851 67.868H45.7496L49.3495 86.2474H59.1848L59.1821 86.2574H73.7311L77.4239 69.2447H77.7897L81.5392 86.2574H93.5925L97.342 69.2447H97.7078L101.401 86.2574ZM103.001 47.3886L112.587 83.6675H103.489L99.7959 66.6548H95.2607L91.5112 83.6675L83.6205 83.6675L79.871 66.6548H75.3358L71.643 83.6675H62.5452L72.1304 47.3886L81.7673 47.3886L85.1414 64.6282H89.9903L93.3644 47.3886L103.001 47.3886Z" fill="black"/>
</svg>
